<svg width="40" height="26" viewBox="0 0 40 26" fill="none" xmlns="http://www.w3.org/2000/svg">
<path fill-rule="evenodd" clip-rule="evenodd" d="M39.6888 12.9999C39.6888 12.627 39.5406 12.2693 39.2769 12.0056C39.0131 11.7418 38.6555 11.5937 38.2825 11.5937L5.11469 11.5937L13.9656 2.74556C14.2297 2.4815 14.378 2.12336 14.378 1.74993C14.378 1.3765 14.2297 1.01836 13.9656 0.754308C13.7016 0.49025 13.3434 0.341906 12.97 0.341906C12.5966 0.341906 12.2384 0.49025 11.9744 0.754307L0.724377 12.0043C0.593419 12.1349 0.489518 12.2901 0.418622 12.461C0.347729 12.6318 0.311238 12.815 0.311238 12.9999C0.311238 13.1849 0.347729 13.3681 0.418622 13.5389C0.489518 13.7097 0.593419 13.8649 0.724377 13.9956L11.9744 25.2456C12.2384 25.5096 12.5966 25.658 12.97 25.658C13.3434 25.658 13.7016 25.5096 13.9656 25.2456C14.2297 24.9815 14.378 24.6234 14.378 24.2499C14.378 23.8765 14.2297 23.5184 13.9656 23.2543L5.11469 14.4062L38.2825 14.4062C38.6555 14.4062 39.0131 14.258 39.2769 13.9943C39.5406 13.7306 39.6888 13.3729 39.6888 12.9999Z" fill="#377DE0"/>
</svg>
