<svg width="40" height="26" viewBox="0 0 40 26" fill="none" xmlns="http://www.w3.org/2000/svg">
<path fill-rule="evenodd" clip-rule="evenodd" d="M0.311248 12.9999C0.311248 12.627 0.459406 12.2693 0.723129 12.0056C0.986852 11.7418 1.34454 11.5937 1.7175 11.5937L34.8853 11.5937L26.0344 2.74556C25.7703 2.4815 25.622 2.12336 25.622 1.74993C25.622 1.3765 25.7703 1.01836 26.0344 0.754308C26.2984 0.49025 26.6566 0.341906 27.03 0.341906C27.4034 0.341906 27.7616 0.49025 28.0256 0.754307L39.2756 12.0043C39.4066 12.1349 39.5105 12.2901 39.5814 12.461C39.6523 12.6318 39.6888 12.815 39.6888 12.9999C39.6888 13.1849 39.6523 13.3681 39.5814 13.5389C39.5105 13.7097 39.4066 13.8649 39.2756 13.9956L28.0256 25.2456C27.7616 25.5096 27.4034 25.658 27.03 25.658C26.6566 25.658 26.2984 25.5096 26.0344 25.2456C25.7703 24.9815 25.622 24.6234 25.622 24.2499C25.622 23.8765 25.7703 23.5184 26.0344 23.2543L34.8853 14.4062L1.7175 14.4062C1.34454 14.4062 0.986852 14.258 0.723129 13.9943C0.459406 13.7306 0.311248 13.3729 0.311248 12.9999Z" fill="#377DE0"/>
</svg>
