<svg width="29" height="30" viewBox="0 0 29 30" fill="none" xmlns="http://www.w3.org/2000/svg">
<path d="M10.7446 5.28702L10.7447 5.28703C11.2534 4.05214 11.8512 3.07453 12.4989 2.40883L10.7446 5.28702ZM10.7446 5.28702L10.7426 5.29215M10.7446 5.28702L10.7426 5.29215M10.7426 5.29215C10.2412 6.54845 9.86545 7.85135 9.62098 9.18175L9.51249 9.77212M10.7426 5.29215L9.51249 9.77212M9.51249 9.77212H10.1127M9.51249 9.77212H10.1127M10.1127 9.77212H18.8862H19.4866M10.1127 9.77212H19.4866M19.4866 9.77212L19.3779 9.18157M19.4866 9.77212L19.3779 9.18157M19.3779 9.18157C19.1329 7.8511 18.7566 6.54819 18.2546 5.29195L18.2546 5.29194M19.3779 9.18157L18.2546 5.29194M18.2546 5.29194L18.2528 5.28757M18.2546 5.29194L18.2528 5.28757M18.2528 5.28757C17.7458 4.05275 17.1479 3.07294 16.4996 2.40839M18.2528 5.28757L16.4996 2.40839M28.0844 14.9967C28.0855 13.5549 27.8573 12.1222 27.4085 10.7521L27.2957 10.4077H26.9334H20.7966H20.2311L20.3003 10.9689C20.458 12.2483 20.5419 13.6002 20.5419 14.9968C20.5419 16.3934 20.458 17.7452 20.3003 19.0246L20.2311 19.5858H20.7966H26.9334H27.2956L27.4085 19.2416C27.8578 17.8715 28.086 16.4386 28.0844 14.9967ZM28.0844 14.9967C28.0844 14.9968 28.0844 14.997 28.0844 14.9972L27.5844 14.9968L28.0844 14.9962C28.0844 14.9963 28.0844 14.9965 28.0844 14.9967ZM0.914559 14.9968C0.914559 16.4788 1.15398 17.9053 1.59205 19.2415L1.7049 19.5858H2.06717H8.20235H8.76682L8.69869 19.0254C8.53621 17.6889 8.45549 16.3437 8.45701 14.9973V14.9968C8.45701 13.6002 8.54088 12.2483 8.69859 10.9689L8.76777 10.4077H8.20235H2.06553H1.70331L1.59043 10.7519C1.14111 12.122 0.912962 13.5549 0.914559 14.9968ZM0.914559 14.9968H1.41456M0.914559 14.9968C0.91456 14.997 0.91456 14.9971 0.91456 14.9973L1.41456 14.9968M1.41456 14.9968C1.41296 13.6078 1.63271 12.2275 2.06553 10.9077H7.69863C7.7011 10.8873 7.70359 10.8669 7.70611 10.8466L8.20235 10.9077V11.4077H8.14482C8.02178 12.5581 7.95701 13.7606 7.95701 14.9968C7.95566 16.1957 8.01855 17.3938 8.14536 18.5858H8.20235V19.0858L7.706 19.1461C7.70356 19.126 7.70113 19.1059 7.69872 19.0858H2.06717C1.64518 17.7986 1.41456 16.4247 1.41456 14.9968ZM9.09262 14.9964C9.09074 16.385 9.17842 17.7722 9.35511 19.1494L9.4111 19.5858H9.85105H19.1479H19.5872L19.6437 19.1501C19.8134 17.8429 19.9063 16.4491 19.9063 14.9968C19.9063 13.5445 19.8134 12.149 19.6437 10.8433L19.5871 10.4077H19.1479H9.85105H9.41181L9.35521 10.8433C9.18557 12.1489 9.09263 13.5443 9.09262 14.9964ZM9.09262 14.9964C9.09262 14.9963 9.09262 14.9962 9.09262 14.9961L9.59262 14.9968H9.09262C9.09262 14.9966 9.09262 14.9965 9.09262 14.9964ZM16.4996 2.40839C15.8529 1.74379 15.1772 1.41187 14.4995 1.41187C13.8215 1.41187 13.1458 1.74393 12.4989 2.4088L16.4996 2.40839ZM11.4524 2.66814L12.3075 1.50805L10.9177 1.88928C9.05164 2.40114 7.31611 3.3048 5.82673 4.54005C4.33735 5.7753 3.12831 7.31377 2.28018 9.05296L1.92948 9.77212H2.72959H8.44933H8.86706L8.94136 9.36105C9.23381 7.74289 9.65016 6.28268 10.1581 5.04458C10.536 4.12825 10.9689 3.32408 11.4524 2.66814ZM18.0829 1.88928L16.6964 1.50898L17.5477 2.66752C18.0302 3.32424 18.4647 4.12886 18.8407 5.0443C19.3487 6.28247 19.7651 7.74277 20.0576 9.36105L20.1319 9.77212H20.5496H26.2693H27.0694L26.7187 9.05296C25.8706 7.31377 24.6616 5.7753 23.1722 4.54005C21.6829 3.30489 19.949 2.40118 18.0829 1.88928ZM26.7187 20.9405L27.0694 20.2214H26.2693H20.5496H20.1319L20.0576 20.6325C19.765 22.2514 19.3502 23.7129 18.841 24.9469L18.841 24.9468L18.8385 24.953C18.5041 25.7952 18.0693 26.5939 17.5434 27.3319L16.728 28.4761L18.0829 28.1042C19.9487 27.5921 21.6839 26.6884 23.1729 25.4531C24.662 24.2179 25.8708 22.6796 26.7187 20.9405ZM10.7463 24.7064C11.2532 25.9407 11.8508 26.9202 12.4989 27.5847C13.1457 28.2496 13.8215 28.5817 14.4995 28.5817C15.1774 28.5817 15.8532 28.2496 16.5 27.5847C17.1477 26.919 17.7456 25.9412 18.2528 24.706L18.2546 24.7016C18.7566 23.4453 19.1329 22.1424 19.3779 20.8119L19.4866 20.2214H18.8862H10.1127H9.50735L9.62175 20.8159C9.90174 22.2708 10.2849 23.586 10.7463 24.7064ZM10.9159 28.1042L10.9809 28.122H11.0483H11.0516H12.0413L11.4541 27.3254C10.9703 26.669 10.5359 25.8648 10.1599 24.9479L10.1595 24.9469C9.65038 23.7129 9.23559 22.2514 8.94299 20.6325L8.8687 20.2214H8.45096H2.73123H1.93119L2.2818 20.9405C3.12956 22.6794 4.33807 24.2176 5.82685 25.4528C7.31562 26.6881 9.05048 27.5919 10.9159 28.1042Z" fill="#377DE0" stroke="white"/>
</svg>
