<svg width="26" height="21" viewBox="0 0 26 21" fill="none" xmlns="http://www.w3.org/2000/svg">
<path d="M25.2647 2.77343C24.3542 3.17688 23.3761 3.44948 22.3478 3.5727C23.4088 2.93785 24.2026 1.93868 24.581 0.761622C23.5842 1.3537 22.4932 1.77046 21.3556 1.99378C20.5905 1.17692 19.5772 0.63549 18.4729 0.453553C17.3686 0.271616 16.2351 0.459351 15.2484 0.987612C14.2618 1.51587 13.4771 2.3551 13.0163 3.37501C12.5555 4.39491 12.4442 5.53843 12.6999 6.62802C10.6801 6.52661 8.70424 6.00163 6.90048 5.08717C5.09672 4.1727 3.5054 2.88918 2.2298 1.31991C1.79363 2.07229 1.54284 2.94462 1.54284 3.87365C1.54235 4.70999 1.74831 5.53351 2.14243 6.27116C2.53655 7.00882 3.10666 7.63778 3.80217 8.10225C2.99556 8.07659 2.20676 7.85864 1.5014 7.46654V7.53197C1.50132 8.70497 1.90707 9.84187 2.6498 10.7498C3.39253 11.6577 4.4265 12.2806 5.57626 12.513C4.828 12.7155 4.04351 12.7453 3.28204 12.6002C3.60643 13.6095 4.23832 14.4921 5.08925 15.1244C5.94017 15.7567 6.96753 16.1071 8.0275 16.1266C6.22814 17.5391 4.00595 18.3053 1.71839 18.3019C1.31318 18.302 0.908303 18.2784 0.505859 18.2311C2.82786 19.724 5.53083 20.5164 8.29138 20.5133C17.6362 20.5133 22.7447 12.7736 22.7447 6.06101C22.7447 5.84293 22.7393 5.62266 22.7295 5.40458C23.7232 4.68597 24.5809 3.79612 25.2625 2.7767L25.2647 2.77343Z" fill="#377DE0"/>
</svg>
