<svg width="27" height="27" viewBox="0 0 27 27" fill="none" xmlns="http://www.w3.org/2000/svg">
<path d="M26.5006 8.34771C26.4859 7.24706 26.2799 6.15736 25.8917 5.12735C25.555 4.25853 25.0408 3.4695 24.382 2.81065C23.7231 2.1518 22.9341 1.63763 22.0653 1.30098C21.0485 0.919303 19.9744 0.712921 18.8885 0.690627C17.4905 0.628138 17.0473 0.610699 13.4985 0.610699C9.9497 0.610699 9.49484 0.610699 8.107 0.690627C7.02167 0.713085 5.948 0.919464 4.93169 1.30098C4.06274 1.63739 3.27358 2.15148 2.6147 2.81036C1.95582 3.46924 1.44173 4.2584 1.10532 5.12735C0.722879 6.14335 0.516944 7.21725 0.49642 8.30266C0.433931 9.70212 0.415039 10.1454 0.415039 13.6942C0.415039 17.2429 0.415039 17.6964 0.49642 19.0856C0.518219 20.1727 0.723124 21.2451 1.10532 22.2639C1.4423 23.1325 1.95677 23.9214 2.61587 24.58C3.27497 25.2386 4.0642 25.7525 4.93314 26.0888C5.94667 26.4858 7.02052 26.7069 8.10845 26.7427C9.50792 26.8052 9.95115 26.8241 13.4999 26.8241C17.0487 26.8241 17.5036 26.8241 18.8914 26.7427C19.9772 26.7213 21.0515 26.5154 22.0682 26.1338C22.9368 25.7968 23.7256 25.2825 24.3844 24.6237C25.0432 23.9649 25.5575 23.176 25.8946 22.3075C26.2768 21.2902 26.4817 20.2177 26.5035 19.1292C26.566 17.7312 26.5849 17.288 26.5849 13.7377C26.5819 10.189 26.5819 9.73845 26.5006 8.34771ZM13.4898 20.4052C9.77822 20.4052 6.77148 17.3984 6.77148 13.6869C6.77148 9.97533 9.77822 6.96859 13.4898 6.96859C15.2716 6.96859 16.9804 7.67641 18.2403 8.93633C19.5002 10.1963 20.2081 11.9051 20.2081 13.6869C20.2081 15.4687 19.5002 17.1775 18.2403 18.4374C16.9804 19.6974 15.2716 20.4052 13.4898 20.4052ZM20.4755 8.28667C20.2697 8.28686 20.0659 8.24647 19.8757 8.16781C19.6856 8.08915 19.5128 7.97377 19.3673 7.82826C19.2218 7.68275 19.1064 7.50997 19.0277 7.31982C18.9491 7.12967 18.9087 6.92587 18.9089 6.72009C18.9089 6.51446 18.9494 6.31084 19.0281 6.12086C19.1068 5.93088 19.2221 5.75826 19.3675 5.61286C19.5129 5.46746 19.6855 5.35212 19.8755 5.27342C20.0655 5.19473 20.2691 5.15423 20.4747 5.15423C20.6804 5.15423 20.884 5.19473 21.074 5.27342C21.2639 5.35212 21.4366 5.46746 21.582 5.61286C21.7274 5.75826 21.8427 5.93088 21.9214 6.12086C22.0001 6.31084 22.0406 6.51446 22.0406 6.72009C22.0406 7.58622 21.3401 8.28667 20.4755 8.28667Z" fill="#377DE0"/>
<path d="M13.4898 18.0509C15.9 18.0509 17.8538 16.0971 17.8538 13.6869C17.8538 11.2767 15.9 9.32283 13.4898 9.32283C11.0796 9.32283 9.12572 11.2767 9.12572 13.6869C9.12572 16.0971 11.0796 18.0509 13.4898 18.0509Z" fill="#377DE0"/>
</svg>
