<svg width="27" height="19" viewBox="0 0 27 19" fill="none" xmlns="http://www.w3.org/2000/svg">
<path d="M26.0332 3.53902C25.8843 2.98578 25.5927 2.48136 25.1876 2.07624C24.7825 1.67111 24.278 1.3795 23.7248 1.23059C21.6874 0.679184 13.5004 0.679184 13.5004 0.679184C13.5004 0.679184 5.31346 0.679184 3.27606 1.23059C2.72283 1.3795 2.2184 1.67111 1.81328 2.07624C1.40816 2.48136 1.11655 2.98578 0.967636 3.53902C0.587209 5.61685 0.402598 7.7258 0.416231 9.83813C0.402598 11.9505 0.587209 14.0594 0.967636 16.1372C1.11655 16.6905 1.40816 17.1949 1.81328 17.6C2.2184 18.0051 2.72283 18.2967 3.27606 18.4457C5.31346 18.9971 13.5004 18.9971 13.5004 18.9971C13.5004 18.9971 21.6874 18.9971 23.7248 18.4457C24.278 18.2967 24.7825 18.0051 25.1876 17.6C25.5927 17.1949 25.8843 16.6905 26.0332 16.1372C26.4137 14.0594 26.5983 11.9505 26.5846 9.83813C26.5983 7.7258 26.4137 5.61685 26.0332 3.53902ZM10.8836 13.7634V5.91287L17.678 9.83813L10.8836 13.7634Z" fill="#377DE0"/>
</svg>
