<svg width="12" height="7" viewBox="0 0 12 7" fill="none" xmlns="http://www.w3.org/2000/svg">
<path d="M0.515991 0.548005C0.951991 0.102005 1.55899 0.0670052 2.09199 0.548005L5.99999 4.29501L9.90799 0.548005C10.441 0.0670052 11.049 0.102005 11.482 0.548005C11.918 0.993005 11.89 1.74501 11.482 2.16301C11.076 2.58101 6.78699 6.66501 6.78699 6.66501C6.68486 6.77086 6.56244 6.85505 6.42706 6.91255C6.29167 6.97005 6.14608 6.99969 5.99899 6.99969C5.8519 6.99969 5.70631 6.97005 5.57093 6.91255C5.43554 6.85505 5.31313 6.77086 5.21099 6.66501C5.21099 6.66501 0.923991 2.58101 0.515991 2.16301C0.106991 1.74501 0.0799915 0.993005 0.515991 0.548005Z" fill="#393C4B"/>
</svg>
