<svg width="21" height="20" viewBox="0 0 21 20" fill="none" xmlns="http://www.w3.org/2000/svg">
<path d="M19.5 5.5C19.5 6.69347 19.0259 7.83807 18.182 8.68198C17.3381 9.52589 16.1935 10 15 10C13.8065 10 12.6619 9.52589 11.818 8.68198C10.9741 7.83807 10.5 6.69347 10.5 5.5C10.5 4.30653 10.9741 3.16193 11.818 2.31802C12.6619 1.47411 13.8065 1 15 1C16.1935 1 17.3381 1.47411 18.182 2.31802C19.0259 3.16193 19.5 4.30653 19.5 5.5V5.5ZM15.5 3.5C15.5 3.36739 15.4473 3.24021 15.3536 3.14645C15.2598 3.05268 15.1326 3 15 3C14.8674 3 14.7402 3.05268 14.6464 3.14645C14.5527 3.24021 14.5 3.36739 14.5 3.5V5H13C12.8674 5 12.7402 5.05268 12.6464 5.14645C12.5527 5.24021 12.5 5.36739 12.5 5.5C12.5 5.63261 12.5527 5.75979 12.6464 5.85355C12.7402 5.94732 12.8674 6 13 6H14.5V7.5C14.5 7.63261 14.5527 7.75979 14.6464 7.85355C14.7402 7.94732 14.8674 8 15 8C15.1326 8 15.2598 7.94732 15.3536 7.85355C15.4473 7.75979 15.5 7.63261 15.5 7.5V6H17C17.1326 6 17.2598 5.94732 17.3536 5.85355C17.4473 5.75979 17.5 5.63261 17.5 5.5C17.5 5.36739 17.4473 5.24021 17.3536 5.14645C17.2598 5.05268 17.1326 5 17 5H15.5V3.5ZM15 11C16.33 11 17.55 10.528 18.5 9.743V14.5C18.5 15.163 18.2366 15.7989 17.7678 16.2678C17.2989 16.7366 16.663 17 16 17H5C4.33696 17 3.70107 16.7366 3.23223 16.2678C2.76339 15.7989 2.5 15.163 2.5 14.5V7.373L10.247 11.931C10.3238 11.9762 10.4114 12 10.5005 12C10.5896 12 10.6772 11.9762 10.754 11.931L12.984 10.619C13.6261 10.8716 14.31 11.0009 15 11V11ZM5 4H9.707C9.38942 5.1184 9.43468 6.3087 9.83628 7.39975C10.2379 8.4908 10.9751 9.42639 11.942 10.072L10.5 10.92L2.515 6.223C2.58316 5.61164 2.87432 5.04687 3.33279 4.63674C3.79127 4.22661 4.38485 3.9999 5 4V4Z" fill="white"/>
</svg>
