<svg width="21" height="20" viewBox="0 0 21 20" fill="none" xmlns="http://www.w3.org/2000/svg">
<g clip-path="url(#clip0_166_1798)">
<path d="M19.0693 2.71416C19.0655 2.94268 18.9398 3.32735 18.7646 3.62442C18.4828 4.1043 17.7287 4.75557 16.9708 5.17451C15.893 5.77246 14.1029 6.29805 12.8156 6.40469L12.4805 6.43135V9.67627V12.9212L12.8156 12.9479C14.1029 13.0545 15.893 13.5801 16.9708 14.178C17.7287 14.597 18.4828 15.2482 18.7646 15.7281C18.9398 16.0252 19.0655 16.4099 19.0693 16.6346V16.8174H19.6597H20.25V9.67627V2.53516H19.6597H19.0693V2.71416Z" fill="white"/>
<path d="M2.71143 6.51511C1.85068 6.70554 1.19941 7.26921 0.868066 8.12615L0.769043 8.38132V9.67625V10.9712L0.868066 11.2263C1.01279 11.5996 1.1918 11.8814 1.45459 12.148C1.73262 12.4337 2.04492 12.6279 2.44482 12.765C2.70762 12.8526 2.82949 12.8717 3.31318 12.8869L3.87305 12.9021V9.68006V6.45798L3.4084 6.46179C3.14941 6.46179 2.83711 6.48845 2.71143 6.51511Z" fill="white"/>
<path d="M5.01562 9.67627V12.8945H8.17676H11.3379V9.67627V6.45801H8.17676H5.01562V9.67627Z" fill="white"/>
<path d="M4.62336 14.0257C4.56623 14.1247 4.21965 15.2711 4.19679 15.4273C4.15871 15.7167 4.23869 16.1128 4.39103 16.4327C4.99279 17.6629 6.68761 17.8229 7.51789 16.7222C7.70451 16.4784 7.73878 16.387 8.11964 15.2597C8.34054 14.597 8.51954 14.0447 8.51954 14.0257C8.51954 13.9914 4.64621 13.9914 4.62336 14.0257Z" fill="white"/>
</g>
<defs>
<clipPath id="clip0_166_1798">
<rect width="19.5" height="19.5" fill="white" transform="translate(0.75 0.25)"/>
</clipPath>
</defs>
</svg>
