<svg width="40" height="40" viewBox="0 0 40 40" fill="none" xmlns="http://www.w3.org/2000/svg">
<path d="M18.1563 5.85938C14.3438 6.05469 11.2422 6.76562 8.98438 7.96875C8.35938 8.30469 7.42969 9.20312 6.92188 9.98438C6.39844 10.7891 5.71876 12.1328 5.26563 13.2578L4.88282 14.2188H2.77344C0.820317 14.2188 0.648442 14.2344 0.437504 14.3672C-0.0859333 14.7188 -0.109371 15.1172 0.296879 17.0391C0.703129 18.9219 0.804692 19.0547 1.91407 19.125C2.58594 19.1641 2.67188 19.2031 2.46094 19.375C2.25 19.5469 1.64844 20.6641 1.45313 21.25C1.35157 21.5703 1.21875 22.0781 1.16407 22.375C1.04688 23.0781 1.11719 24.8828 1.28907 25.5078C1.57813 26.5547 2.16407 27.6094 2.85938 28.3594L3.18751 28.7109L3.21876 30.8594C3.24219 32.9062 3.25001 33.0234 3.41407 33.3359C3.64063 33.75 4.00782 34.0312 4.45313 34.1328C4.64844 34.1797 5.63282 34.2188 6.64844 34.2188C8.74219 34.2188 9.10157 34.1562 9.50782 33.7344C9.90626 33.3125 9.95313 33.1562 9.98438 32.0859L10.0156 31.0938H20H29.9844L30.0156 32.0859C30.0469 33.1562 30.0938 33.3125 30.4922 33.7344C30.8984 34.1562 31.2578 34.2188 33.3516 34.2188C34.3672 34.2188 35.3516 34.1797 35.5469 34.1328C35.9922 34.0312 36.3594 33.75 36.5859 33.3359C36.75 33.0234 36.7578 32.9062 36.7813 30.8984L36.8047 28.7891L37.0703 28.5156C37.9609 27.5703 38.6016 26.2734 38.8359 24.9609C38.9688 24.1719 38.8828 22.4531 38.6719 21.7266C38.4766 21.0391 38.0703 20.2109 37.6484 19.6094L37.3438 19.1797L38.0469 19.125C39.2109 19.0469 39.2969 18.9297 39.7031 17.0391C40.1094 15.1172 40.086 14.7188 39.5625 14.3672C39.3516 14.2344 39.1797 14.2188 37.2266 14.2188H35.1172L34.7344 13.2578C34.2891 12.1484 33.6172 10.8125 33.0781 9.99219C32.5781 9.21875 31.6484 8.3125 31.0078 7.96094C28.1641 6.41406 23.2188 5.60938 18.1563 5.85938ZM23.0938 9.10156C26.4453 9.40625 29.2656 10.2734 30.1172 11.2734C30.6406 11.8828 31.3594 13.2891 32.0234 14.9922L32.3281 15.7812H20H7.67188L7.97657 14.9922C8.66407 13.2344 9.35938 11.875 9.89063 11.2656C10.8047 10.2188 13.7734 9.33594 17.3047 9.0625C19.3047 8.90625 21.0391 8.92188 23.0938 9.10156ZM9.85938 21.2656C11.2109 21.8906 11.9219 23.3906 11.5156 24.7578C10.8906 26.8672 8.39063 27.625 6.74219 26.2109C5.45313 25.1094 5.35938 23.2031 6.53907 21.9453C7.16407 21.2734 7.81251 21.0078 8.75001 21.0391C9.26563 21.0547 9.51563 21.1094 9.85938 21.2656ZM32.2344 21.1484C34 21.7344 34.8203 23.6484 34.0234 25.2891C33.5938 26.1562 32.6328 26.8203 31.6641 26.9219C30.2734 27.0703 28.8828 26.1172 28.5156 24.7656C28.0156 22.9062 29.4141 21.0469 31.3359 21.0234C31.6172 21.0156 32.0156 21.0703 32.2344 21.1484Z" fill="white"/>
</svg>
