<svg width="40" height="40" viewBox="0 0 40 40" fill="none" xmlns="http://www.w3.org/2000/svg">
<g clip-path="url(#clip0_155_799)">
<path d="M7.11719 0.15623C6.19531 0.492168 5.5 1.11717 5.05469 2.02342L4.80469 2.53904V20V37.4609L5.05469 37.9765C5.50781 38.9062 6.21094 39.5234 7.15625 39.8437C7.60938 40 7.82031 40 20.1562 39.9844L32.6953 39.9609L33.2422 39.6953C33.9609 39.3437 34.5781 38.7265 34.9297 38.0078L35.1953 37.4609L35.2188 24.5859L35.2344 11.7187H31.2344C29.0312 11.7187 26.9609 11.6797 26.6484 11.6406C25.0391 11.4297 23.8047 10.1953 23.5938 8.58592C23.5547 8.27342 23.5156 6.20311 23.5156 3.99998V-2.00261e-05H15.5312C7.84375 0.00779247 7.52344 0.00779247 7.11719 0.15623ZM27.5547 16.6562C27.8906 16.8437 28.125 17.25 28.125 17.6562C28.125 18.0625 27.9375 18.3984 27.5781 18.6172L27.3047 18.789H20C12.8359 18.789 12.6875 18.789 12.4375 18.6328C12.0859 18.4219 11.875 18.0625 11.875 17.664C11.875 17.0937 12.2031 16.6953 12.7734 16.5547C12.8984 16.5234 16.2266 16.5078 20.1562 16.5078C26.7656 16.5234 27.3203 16.5312 27.5547 16.6562ZM27.5547 21.3437C27.8906 21.5312 28.125 21.9375 28.125 22.3437C28.125 22.75 27.9375 23.0859 27.5781 23.3047L27.3047 23.4765H20C12.8359 23.4765 12.6875 23.4765 12.4375 23.3203C12.0859 23.1094 11.875 22.75 11.875 22.3515C11.875 21.7812 12.2031 21.3828 12.7734 21.2422C12.8984 21.2109 16.2266 21.1953 20.1562 21.1953C26.7656 21.2109 27.3203 21.2187 27.5547 21.3437ZM27.5547 26.0312C27.8906 26.2187 28.125 26.625 28.125 27.0312C28.125 27.4375 27.9375 27.7734 27.5781 27.9922L27.3047 28.164H20C12.8359 28.164 12.6875 28.164 12.4375 28.0078C12.0859 27.7969 11.875 27.4375 11.875 27.039C11.875 26.4687 12.2031 26.0703 12.7734 25.9297C12.8984 25.8984 16.2266 25.8828 20.1562 25.8828C26.7656 25.8984 27.3203 25.9062 27.5547 26.0312ZM22.8672 30.7187C23.6172 31.1328 23.625 32.2422 22.875 32.6953C22.625 32.8437 22.4766 32.8515 17.6562 32.8515C12.8359 32.8515 12.6875 32.8437 12.4375 32.6953C12.0859 32.4844 11.875 32.125 11.875 31.7265C11.875 31.1562 12.1953 30.7578 12.7734 30.6172C12.8984 30.5859 15.1719 30.5625 17.8125 30.5703C22.2031 30.5859 22.6406 30.5937 22.8672 30.7187Z" fill="white"/>
<path d="M25.8594 4.60153C25.8594 8.4609 25.8672 8.62497 26.0156 8.86715C26.3438 9.3984 26.2344 9.38278 30.6484 9.35934L34.6094 9.3359L30.2344 4.9609L25.8594 0.585904V4.60153Z" fill="white"/>
</g>
<defs>
<clipPath id="clip0_155_799">
<rect width="40" height="40" fill="white"/>
</clipPath>
</defs>
</svg>
