<svg width="40" height="40" viewBox="0 0 40 40" fill="none" xmlns="http://www.w3.org/2000/svg">
<path d="M37.5781 5.0547C37.5703 5.52345 37.3125 6.31251 36.9531 6.92188C36.375 7.90626 34.8281 9.24219 33.2734 10.1016C31.0625 11.3281 27.3906 12.4063 24.75 12.625L24.0625 12.6797V19.3359V25.9922L24.75 26.0469C27.3906 26.2656 31.0625 27.3438 33.2734 28.5703C34.8281 29.4297 36.375 30.7656 36.9531 31.75C37.3125 32.3594 37.5703 33.1484 37.5781 33.6094V33.9844H38.7891H40V19.3359V4.68751H38.7891H37.5781V5.0547Z" fill="white"/>
<path d="M4.02344 12.8516C2.25781 13.2422 0.921875 14.3984 0.242188 16.1562L0.0390625 16.6797V19.3359V21.9922L0.242188 22.5156C0.539062 23.2812 0.90625 23.8594 1.44531 24.4062C2.01562 24.9922 2.65625 25.3906 3.47656 25.6719C4.01562 25.8516 4.26562 25.8906 5.25781 25.9219L6.40625 25.9531V19.3437V12.7344L5.45312 12.7422C4.92188 12.7422 4.28125 12.7969 4.02344 12.8516Z" fill="white"/>
<path d="M8.75 19.3359V25.9375H15.2344H21.7188V19.3359V12.7344H15.2344H8.75V19.3359Z" fill="white"/>
<path d="M7.94531 28.2578C7.82812 28.4609 7.11718 30.8125 7.07031 31.1328C6.99218 31.7265 7.15625 32.539 7.46875 33.1953C8.70312 35.7187 12.1797 36.0469 13.8828 33.789C14.2656 33.289 14.3359 33.1015 15.1172 30.789C15.5703 29.4297 15.9375 28.2969 15.9375 28.2578C15.9375 28.1875 7.99218 28.1875 7.94531 28.2578Z" fill="white"/>
</svg>
