<svg width="538" height="516" viewBox="0 0 538 516" fill="none" xmlns="http://www.w3.org/2000/svg">
<path d="M464.642 26.3159C464.298 26.6599 464.04 27.692 464.04 28.552C464.04 29.412 463.61 30.1 463.094 30.1C462.578 30.1 460.858 31.39 459.31 32.852C457.762 34.4 455.784 36.12 454.838 36.636C453.376 37.5819 453.376 37.668 454.838 39.302C455.612 40.248 456.128 41.538 455.87 42.226C455.01 44.2039 446.668 47.73 443.658 47.472C441.594 47.214 440.304 47.7299 438.67 49.364C435.488 52.5459 436.09 55.384 439.96 55.47C441.594 55.47 442.11 58.222 440.734 59.856C439.96 60.802 439.444 60.888 438.584 60.114C437.724 59.426 437.036 59.426 436.262 60.028C435.66 60.544 433.338 61.06 431.016 61.232C426.458 61.49 426.372 61.662 424.05 68.112C422.76 71.724 422.33 72.24 419.492 72.756C417.772 73.1 415.106 74.304 413.644 75.422C412.182 76.4539 410.118 77.4 409.086 77.4C406.764 77.4 400.228 80.668 400.744 81.528C401.26 82.474 389.478 82.818 388.102 81.958C385.952 80.582 379.416 79.292 376.32 79.722C374.514 79.9799 371.762 79.722 370.214 79.292C368.58 78.776 365.57 78.174 363.592 77.916C361.528 77.658 359.378 77.142 358.862 76.7119C358.26 76.282 356.712 75.68 355.422 75.336C353.272 74.82 353.014 74.906 353.53 76.54C354.046 78.26 352.756 78.948 351.81 77.4C351.552 76.884 349.574 76.54 347.51 76.54C345.188 76.54 343.21 76.024 342.35 75.164C340.802 73.616 338.308 74.132 338.996 75.938C339.426 77.228 335.814 82.044 333.32 83.42C332.202 84.022 331.342 83.6779 329.794 82.302C327.73 80.4099 327.558 80.324 325.15 80.066C324.462 80.066 322.57 78.776 321.022 77.4C319.388 75.938 317.152 74.82 315.948 74.82C314.83 74.82 312.422 74.046 310.53 73.1C308.724 72.154 306.832 71.724 306.488 72.068C305.456 73.1 300.64 72.24 300.64 71.1219C300.64 70.52 300.296 70.52 299.608 71.208C298.318 72.498 293.158 72.584 292.728 71.294C292.556 70.864 291.868 70.348 291.18 70.176C290.492 70.004 288.514 69.66 286.794 69.316C284.558 68.8 282.924 69.058 281.032 70.004C277.592 71.81 277.506 71.81 276.56 69.144C275.786 67.08 275.442 66.994 271.228 67.424C262.026 68.37 258.93 68.886 258.672 69.66C258.242 70.95 251.104 68.284 247.836 65.704C244.396 62.952 243.622 59.082 246.202 57.19C247.062 56.502 247.406 55.556 246.976 54.61C246.46 53.148 246.288 53.234 244.224 55.126C240.784 58.394 233.646 58.308 227.884 54.954C225.39 53.578 223.068 52.46 222.638 52.632C222.294 52.718 220.316 52.288 218.338 51.6C215.414 50.74 214.468 50.654 213.35 51.6C212.318 52.46 212.06 52.46 212.06 51.514C212.06 50.654 211.802 50.654 211.028 51.428C210.426 52.03 209.136 52.46 208.19 52.46C206.47 52.46 206.384 52.89 206.556 57.19C206.728 59.77 206.47 61.92 206.04 61.92C204.75 61.92 204.148 65.188 205.18 67.166C206.04 68.714 205.868 69.316 203.374 71.38C201.74 72.67 200.02 73.616 199.504 73.358C197.956 72.756 194.086 78.088 193.484 81.614C192.796 86.172 191.764 87.5479 190.388 86.172C189.872 85.6559 187.378 85.14 185.056 85.14C181.788 85.054 180.068 84.538 178.348 83.162C176.284 81.442 176.112 80.926 176.714 77.572C177.402 74.046 177.402 73.96 174.994 73.96C172.07 73.96 170.78 75.938 170.78 80.668C170.78 83.506 170.264 84.538 168.114 86.344C166.566 87.634 164.416 88.58 162.954 88.58C160.546 88.58 157.02 91.16 157.02 92.88C157.02 93.31 157.45 95.46 158.052 97.524C159.256 102.082 158.138 104.06 154.44 104.06C151.258 104.06 149.28 104.834 149.28 106.124C149.28 106.64 148.506 108.618 147.474 110.424L145.668 113.778L147.56 116.272C150.054 119.626 149.452 120.916 145.582 120.572C141.626 120.228 141.368 121.69 144.98 125.13C148.248 128.312 149.194 133.558 147.13 137.858C145.41 141.642 143.088 142.33 140.766 139.836C139.734 138.804 138.96 137.514 138.96 136.998C138.96 136.482 138.358 135.622 137.67 135.02C136.638 134.16 136.122 134.16 135.09 135.02C134.402 135.622 133.198 135.88 132.51 135.536C130.79 134.934 130.876 135.536 133.026 138.976C135.262 142.674 137.24 143.706 140.594 143.104C142.83 142.674 143.26 142.846 143.69 144.652C144.034 145.856 143.518 148.608 142.486 151.188C139.476 158.842 140.508 167.872 145.496 178.45C147.56 182.836 148.248 188.684 146.7 189.63C145.582 190.318 143.69 186.964 142.056 181.46C141.282 178.88 140.422 176.3 140.078 175.698C139.046 174.236 134.918 178.192 135.004 180.514C135.09 181.718 134.402 182.922 133.37 183.524C132.424 184.04 131.306 184.986 130.962 185.588C130.532 186.19 129.328 187.05 128.296 187.48C127.006 187.91 125.974 189.458 125.286 191.952C123.48 197.972 120.298 203.476 117.202 206.056C113.074 209.496 112.128 211.818 112.73 216.204C113.16 218.612 112.988 220.16 112.386 220.504C111.096 221.278 111.182 226.61 112.472 230.222C113.246 232.372 113.246 234.006 112.558 236.586C111.526 240.628 112.386 245.186 114.88 248.368C116.342 250.088 116.342 250.69 115.31 253.098C114.622 254.818 113.246 256.108 111.526 256.71C108 257.914 107.484 258.602 105.42 264.45C102.066 273.91 101.722 275.63 101.722 282.338C101.636 288.788 101.55 289.046 99.4 289.562C96.476 290.25 95.1 291.454 95.1 293.346C95.1 295.754 91.832 299.108 88.392 300.226C85.726 301.086 85.21 301 84.264 299.71C82.802 297.732 80.652 298.678 80.05 301.602C79.706 302.892 79.19 304.784 78.846 305.73C78.416 306.676 78.33 308.654 78.502 310.202C78.932 312.696 79.19 312.954 81.254 312.524C85.124 311.75 86.156 313.814 84.78 319.748C83.232 326.886 83.146 327.058 81.77 326.456C79.534 325.682 79.362 328.262 81.34 330.928C82.716 332.734 83.318 335.142 83.662 339.356C84.092 345.118 86.5 353.546 88.392 355.868C89.424 357.072 92.606 356.384 93.552 354.75C93.896 354.148 96.82 353.374 100.002 353.03C106.108 352.428 110.15 350.88 110.752 348.988C111.182 347.784 114.45 348.644 120.556 351.396C123.738 352.772 125.716 356.814 124.512 359.136C121.416 365.07 121.416 365.5 122.878 367.994C123.652 369.37 124.34 371.004 124.34 371.606C124.34 372.294 125.286 374.702 126.404 377.11C127.522 379.432 128.898 382.356 129.414 383.56C129.93 384.764 130.188 385.022 130.016 384.162C129.672 383.13 130.016 382.7 131.22 382.7C132.682 382.7 132.768 382.958 131.994 385.108C131.478 386.398 131.306 389.236 131.65 391.558C131.908 393.88 131.736 396.374 131.22 397.32C130.532 398.61 130.618 399.642 131.564 401.362C132.596 403.34 132.596 404.286 131.478 407.984C130.79 410.306 130.102 414.004 130.016 416.24C129.844 419.164 128.898 421.916 126.662 425.614C123.652 430.774 123.394 432.408 124.942 437.31C125.716 439.546 125.372 441.868 123.824 445.308C123.136 446.856 122.706 448.404 122.964 448.834C123.222 449.264 122.276 450.726 120.9 452.102C118.836 454.08 117.976 456.144 116.686 462.078C114.88 470.42 115.052 472.312 118.062 475.924C119.438 477.472 119.954 479.106 119.696 480.224C119.438 481.17 119.696 482.46 120.212 483.062C121.33 484.438 123.824 484.61 122.964 483.234C122.706 482.718 122.878 481.944 123.48 481.6C124.77 480.826 127.608 483.32 127.178 484.696C126.662 486.158 128.726 487.19 129.5 485.9C130.446 484.438 134.058 485.728 133.456 487.276C132.94 488.652 136.036 490.2 139.39 490.2C142.056 490.2 145.84 488.48 145.84 487.19C145.84 486.674 147.13 484.954 148.678 483.406L151.602 480.654L156.762 482.116L161.922 483.578L168.544 480.912C172.156 479.45 175.596 478.418 176.284 478.676C176.886 478.934 178.176 480.224 179.208 481.514C181.272 484.352 185.056 485.9 184.024 483.492C183.766 482.718 183.078 479.966 182.648 477.386C181.788 472.226 179.81 466.98 178.692 466.98C178.348 466.98 176.714 464.486 175.252 461.39C173.274 457.52 172.586 455.198 173.016 453.736C173.274 452.532 173.618 449.092 173.79 446.168C173.962 443.158 174.048 440.062 174.134 439.202C174.22 438.342 175.252 437.31 176.714 436.794C178.864 436.02 179.294 435.332 179.81 431.72C180.154 429.398 180.928 427.076 181.616 426.474C183.336 425.098 183.164 423.636 181.014 421.744C179.552 420.454 179.294 419.422 179.638 416.412C179.982 413.488 179.724 412.542 178.434 411.682C176.886 410.564 176.972 406.78 178.606 406.78C179.724 406.78 179.552 403.856 178.434 402.738C177.832 402.136 177.746 400.76 178.176 398.868C179.036 395.342 178.692 393.106 177.144 391.558C176.284 390.698 176.198 389.838 176.714 388.806C177.144 388.032 177.316 385.022 177.058 382.184C176.628 377.196 176.714 376.68 179.724 372.294C182.82 367.65 183.508 365.156 181.96 364.21C181.53 363.952 181.1 362.404 181.1 360.77C181.1 359.136 180.756 356.9 180.326 355.696C179.81 354.492 179.724 350.278 180.068 345.978C180.842 336.776 180.154 334.97 175.338 333.164C171.984 331.874 171.64 331.444 171.64 328.778C171.64 326.972 170.78 324.736 169.49 323.016C167.082 319.92 166.824 319.06 168.286 319.06C168.888 319.06 171.124 317.684 173.446 316.05C175.682 314.416 179.036 312.524 180.756 311.75C183.852 310.46 190.56 304.526 190.56 303.064C190.56 302.204 195.118 300.484 201.052 299.022C204.062 298.334 205.61 298.334 207.072 299.108C210.512 300.742 218.166 301.344 219.026 300.054C219.628 299.108 219.8 299.108 219.8 300.226C219.8 301 220.66 302.204 221.692 302.892L223.584 304.182L220.918 306.934C219.456 308.396 217.822 309.6 217.306 309.6C216.102 309.6 216.102 311.922 217.22 312.61C217.736 312.868 218.08 312.696 218.08 312.266C218.08 311.75 218.682 311.32 219.37 311.32C220.058 311.32 220.66 311.922 220.66 312.696C220.66 313.384 221.004 313.814 221.434 313.556C221.864 313.212 222.466 314.244 222.81 315.706C223.154 317.34 223.068 318.63 222.552 318.974C221.95 319.318 221.95 320.006 222.38 320.694C222.81 321.468 222.638 322.672 221.864 323.79C221.004 325.08 220.746 326.8 221.176 329.122C221.778 332.992 220.058 336.69 217.134 337.55C216.274 337.894 215.5 338.496 215.5 339.012C215.5 339.442 214.124 342.108 212.49 344.774C209.394 349.762 209.394 349.762 210.684 353.546C211.544 356.126 213.264 358.362 216.102 360.77C218.338 362.576 222.036 366.016 224.358 368.252C226.594 370.488 229.088 372.38 230.034 372.38C232.184 372.38 233.388 374.1 232.958 376.68C232.7 378.314 232.872 378.572 233.732 377.712C235.366 376.078 236.054 376.422 237.344 379.604C238.634 382.7 238.72 382.786 249.47 385.28C254.716 386.484 255.92 387.43 255.92 390.526C255.92 394.224 253.34 400.072 251.964 399.556C250.674 399.04 250.502 399.642 249.126 409.79C248.61 413.574 247.836 418.39 247.406 420.54C246.718 423.636 246.89 424.84 247.922 426.56C250.33 430.43 252.652 432.494 255.834 433.526C257.468 434.128 259.446 435.074 260.048 435.762C260.736 436.364 262.972 436.88 265.294 436.88C267.616 436.88 270.884 437.482 272.518 438.17C277.334 440.148 280.86 439.804 284.042 436.966L286.794 434.558L284.73 432.752C281.462 429.914 281.204 425.958 283.87 421.142C285.332 418.562 286.708 417.1 287.826 417.1C288.686 417.1 289.46 416.67 289.46 416.154C289.46 415.724 289.804 415.552 290.32 415.81C290.75 416.068 291.61 415.552 292.212 414.606C292.986 413.316 293.588 413.144 294.792 413.746C295.824 414.348 297.888 414.004 301.5 412.8C304.424 411.854 307.606 411.252 308.724 411.596C310.788 412.112 314.314 410.736 315.346 409.102C316.206 407.812 319.388 409.962 320.85 412.8C321.624 414.262 322.398 415.38 322.656 415.38C322.914 415.38 322.828 414.95 322.57 414.52C321.882 413.316 323.258 413.402 324.462 414.606C324.978 415.122 325.838 415.294 326.354 415.036C328.074 413.918 327.3 410.994 324.72 408.758C323.344 407.64 322.14 406.092 322.14 405.404C322.14 403.598 323 403.942 324.892 406.35C325.838 407.554 327.73 409.102 329.192 409.876C331.428 411.08 331.944 411.08 333.75 409.876C335.47 408.758 335.728 407.984 335.728 401.448C335.728 397.406 335.298 393.192 334.61 391.558C333.234 388.29 330.224 386.312 328.676 387.86C327.988 388.548 328.246 389.236 329.88 390.44C332.46 392.418 331.772 393.364 327.988 393.106C326.44 393.02 324.548 392.934 323.774 392.934C322.054 392.934 320.162 389.064 320.85 386.914C321.452 385.194 319.302 383.732 314.83 382.614L312.25 382.012L315.26 381.926C318.786 381.84 322.312 378.744 320.334 377.454C319.646 377.11 318.27 376.938 317.238 377.196C314.056 378.056 311.992 376.766 310.014 372.81C308.294 369.284 305.886 367.478 303.65 367.908C302.102 368.166 292.9 360.34 292.9 358.792C292.9 358.018 293.76 356.9 294.792 356.47C295.91 355.954 297.114 354.32 297.544 352.772C298.232 350.45 298.06 349.676 296.512 348.042C294.792 346.236 294.792 346.064 296.168 345.204C297.888 344.172 300.898 344.602 300.21 345.72C299.952 346.15 300.468 347.268 301.414 348.214C302.446 349.246 303.392 349.59 303.65 349.16C304.682 347.526 303.22 345.204 300.64 344.258C297.716 343.14 297.458 341.678 299.35 337.98C300.64 335.572 302.36 334.54 302.36 336.174C302.36 336.604 303.306 337.12 304.51 337.292C306.316 337.636 306.66 337.378 306.66 335.658C306.66 334.368 307.348 333.336 308.552 332.906L310.444 332.218L308.38 331.014C307.176 330.412 305.628 329.982 304.94 330.068C304.252 330.154 301.93 328.52 299.952 326.37L296.168 322.586L297.974 320.264C300.984 316.394 300.038 314.416 295.05 314.33C293.072 314.33 292.384 313.9 292.212 312.438C292.04 311.234 290.664 309.944 288.256 308.826C283.698 306.59 280.43 303.236 281.118 301.43C281.72 300.054 276.732 290.164 273.464 286.208C272.346 284.832 271.228 282.94 270.884 281.908C270.626 280.79 268.218 277.866 265.638 275.372C261.854 271.674 260.478 270.9 257.984 270.9C253.512 270.9 251.62 269.61 251.62 266.514C251.62 264.536 250.674 262.988 247.75 260.064C245.6 258 243.88 255.678 243.88 254.99C243.88 254.302 243.278 253.7 242.59 253.7C241.816 253.7 241.3 254.474 241.3 255.764C241.3 258.774 240.01 259.204 238.892 256.71C238.204 255.248 238.204 253.872 238.72 252.41C239.408 250.604 239.322 250.26 237.86 250.26C235.796 250.26 235.538 247.508 237.344 246.046C238.29 245.272 238.806 245.358 239.838 246.39C240.612 247.078 242.332 247.68 243.794 247.68C245.772 247.68 246.46 248.11 246.546 249.142C246.546 251.378 253.082 256.28 255.92 256.28C259.446 256.28 263.23 252.668 266.154 246.39C267.702 243.122 269.336 240.8 270.11 240.8C270.798 240.8 271.4 240.37 271.4 239.768C271.4 238.994 271.658 238.994 272.346 239.682C273.55 240.886 276.99 239.768 279.57 237.36C280.688 236.328 283.354 235.64 287.482 235.21C291.868 234.78 294.448 234.092 296.34 232.63C297.802 231.512 300.21 230.136 301.586 229.62C302.962 229.018 304.08 228.244 304.08 227.9C304.08 227.556 306.574 224.632 309.67 221.364C312.766 218.096 315.26 214.914 315.26 214.312C315.26 213.71 316.206 212.85 317.41 212.42C318.614 211.99 319.56 210.958 319.56 210.012C319.56 208.292 322.054 205.54 323.688 205.54C324.29 205.54 324.72 205.024 324.72 204.422C324.72 203.82 325.666 202.014 326.87 200.38C328.074 198.746 329.02 196.854 329.02 195.994C329.02 193.586 331.17 192.554 338.824 191.522C343.296 190.92 346.22 190.146 346.22 189.544C346.22 189.028 346.736 188.082 347.424 187.566C348.886 186.362 350.778 188.34 350.864 191.264C350.95 193.5 358.346 200.38 360.668 200.38C363.592 200.38 365.57 197.714 366.43 192.554C366.688 191.006 367.548 189.028 368.236 188.254C370.128 186.19 370.214 179.826 368.322 178.794C367.548 178.278 366.86 177.246 366.86 176.386C366.86 173.978 359.636 170.968 352.67 170.538C347.424 170.194 346.134 170.366 342.608 172.344C340.286 173.548 338.48 174.236 338.48 173.806C338.48 172.86 330.654 174.322 329.536 175.44C329.02 175.956 327.988 176.3 327.042 176.3C324.376 176.3 326.268 177.934 329.708 178.536C336.846 179.74 341.06 182.148 336.588 182.492C335.47 182.492 333.664 182.664 332.46 182.75C331.256 182.836 328.848 183.438 327.042 184.04C324.118 185.158 323.43 185.158 321.452 183.954C319.56 182.922 316.636 182.75 306.918 182.922C300.124 183.094 293.674 183.61 292.556 184.04C291.008 184.642 290.062 185.932 289.202 188.942C287.998 192.984 287.912 193.07 284.214 193.328C282.15 193.414 279.312 194.188 277.85 194.876C275.7 195.994 274.238 196.08 268.992 195.392C260.65 194.188 258.328 192.64 258.672 188.512C259.016 184.728 257.038 183.782 254.458 186.534C253.598 187.394 251.792 188.512 250.502 188.856C249.126 189.2 247.32 190.576 246.46 192.038C245.6 193.414 242.848 196.854 240.268 199.52C234.506 205.798 230.636 211.044 228.916 215.258C228.228 217.064 226.766 219.73 225.734 221.192C224.1 223.428 223.498 223.686 221.176 223.17C219.714 222.826 216.79 222.482 214.64 222.31C212.49 222.224 210.082 222.052 209.308 221.966C208.448 221.966 207.76 221.364 207.76 220.676C207.76 219.988 207.33 219.128 206.814 218.87C205.868 218.268 200.45 220.504 199.59 221.88C198.558 223.6 197.268 222.654 195.548 218.698C194.602 216.462 192.968 214.054 192.022 213.28C190.474 211.99 190.474 211.56 191.506 208.722C192.624 205.454 192.71 205.712 189.184 199.348C188.496 198.058 186.948 196.854 185.486 196.51C184.11 196.252 182.648 195.134 182.132 193.93C181.014 191.522 179.208 191.178 177.66 193.07C177.058 193.758 176.198 194.36 175.682 194.36C174.048 194.36 162.954 181.976 161.062 178.02C159.772 175.182 159.256 172.344 159.17 167.27C159.084 163.486 158.826 159.788 158.482 159.1C155.558 152.048 155.902 143.448 159.17 138.46C160.288 136.826 161.406 133.816 161.75 131.838C162.094 129.774 162.696 127.882 163.126 127.624C163.642 127.366 163.728 126.42 163.47 125.56C163.126 124.442 163.9 122.894 165.878 120.658C167.426 118.852 170.35 115.154 172.328 112.488C176.198 107.242 178.09 105.78 181.186 105.78C182.304 105.78 183.938 105.006 184.97 104.06C187.464 101.738 197.01 101.394 200.106 103.458C201.224 104.232 202.6 104.92 203.202 104.92C203.89 104.92 205.868 105.952 207.674 107.156C210.684 109.134 211.372 109.22 214.468 108.446C217.306 107.672 218.338 107.758 220.488 108.962C222.896 110.338 223.154 110.338 225.476 108.79C229.862 105.78 233.302 105.092 240.87 105.522C248.18 105.866 248.18 105.866 249.04 103.544C249.9 101.394 250.072 101.308 255.49 101.738C261.51 102.254 262.8 102.684 262.8 104.404C262.8 105.006 263.66 106.296 264.778 107.328L266.67 109.134L276.13 106.984C281.29 105.78 285.848 104.576 286.192 104.404C286.622 104.146 287.396 104.318 287.998 104.748C288.772 105.35 291.094 105.35 295.48 104.748C304.596 103.458 313.454 103.458 316.808 104.748C319.13 105.608 319.56 105.608 319.56 104.49C319.56 102.942 321.194 102.77 321.71 104.232C322.054 105.092 324.892 105.264 334.008 104.834L345.79 104.232L348.8 107.414C356.54 115.412 362.044 118.078 367.032 116.186C368.494 115.67 371.074 115.67 374.772 116.272C377.696 116.702 380.792 117.132 381.48 117.132C384.232 117.132 394.896 115.154 398.25 113.95C402.292 112.66 407.108 111.8 414.16 111.198C416.74 111.026 420.18 110.252 421.814 109.478C423.448 108.79 426.544 108.016 428.694 107.758C430.844 107.5 432.822 106.984 432.908 106.554C433.08 106.124 433.94 105.78 434.714 105.78C435.918 105.78 436.176 105.264 435.832 103.286C435.574 101.48 436.004 100.448 437.724 99.072C439.014 98.1259 439.616 97.094 439.186 96.75C437.982 96.062 439.874 92.02 441.422 92.02C442.024 92.02 442.54 91.246 442.54 90.214C442.54 89.268 442.884 87.806 443.314 86.946C444.518 84.71 449.076 79.98 450.022 79.98C450.452 79.98 451.656 79.034 452.602 77.916C453.634 76.798 455.612 75.594 457.074 75.25C458.536 74.906 459.74 74.39 459.74 74.046C459.74 73.616 461.288 71.552 463.266 69.316C466.964 65.102 470.06 58.308 470.06 54.438C470.06 51.256 474.102 45.58 476.424 45.58C478.66 45.58 479.864 44.8059 481.068 42.4839C481.928 40.8499 481.584 40.334 478.66 37.926C475.822 35.6039 475.392 34.916 476.08 33.54C477.542 30.874 477.112 30.0999 474.36 30.616C470.576 31.39 467.652 30.358 467.308 28.208C467.05 26.316 465.674 25.37 464.642 26.3159Z" fill="#377DE0"/>
<path d="M283.784 154.37C283.526 155.574 282.924 156.348 282.58 156.09C282.15 155.832 281.548 156.004 281.29 156.52C280.86 157.208 280 157.036 278.538 156.09C277.42 155.316 275.958 154.886 275.442 155.144C274.668 155.402 274.754 155.574 275.528 155.574C276.13 155.66 276.388 156.09 276.13 156.52C275.7 157.208 275.184 157.122 274.41 156.52C272.862 155.23 271.4 156.09 271.4 158.154C271.4 159.702 266.67 162.368 265.724 161.422C264.778 160.476 257.64 167.184 257.64 169.076C257.64 171.054 260.22 170.452 261.252 168.13C262.284 165.808 263.918 165.464 267.444 166.84C268.906 167.356 269.68 167.356 269.68 166.84C269.68 166.324 270.282 165.98 271.056 165.98C271.744 165.98 272.088 166.324 271.83 166.84C271.572 167.27 271.916 167.7 272.604 167.7C273.378 167.7 274.152 166.668 274.496 165.292C275.356 161.164 275.614 160.82 277.592 160.734C278.71 160.734 280.516 160.562 281.72 160.476C282.924 160.304 284.128 160.562 284.386 160.992C285.246 162.368 288.6 160.132 288.6 158.154C288.6 157.208 287.998 156.262 287.31 156.004C286.622 155.66 286.02 154.714 286.02 153.854C286.02 151.446 284.386 151.876 283.784 154.37Z" fill="#377DE0"/>
<g filter="url(#filter0_dd_4_609)">
<rect x="5" y="82" width="180" height="72" rx="8" fill="white"/>
<path d="M21.18 99V113H17.94V101.6H15.14V99H21.18ZM33.192 105.64C33.8854 105.987 34.412 106.44 34.772 107C35.1454 107.56 35.332 108.207 35.332 108.94C35.332 109.807 35.0854 110.567 34.592 111.22C34.0987 111.86 33.4054 112.36 32.512 112.72C31.6187 113.067 30.5854 113.24 29.412 113.24C28.2387 113.24 27.2054 113.067 26.312 112.72C25.432 112.36 24.7454 111.86 24.252 111.22C23.772 110.567 23.532 109.807 23.532 108.94C23.532 108.207 23.712 107.56 24.072 107C24.4454 106.44 24.972 105.987 25.652 105.64C25.132 105.32 24.732 104.92 24.452 104.44C24.172 103.947 24.032 103.387 24.032 102.76C24.032 101.947 24.2587 101.24 24.712 100.64C25.1654 100.04 25.7987 99.58 26.612 99.26C27.4254 98.9267 28.3587 98.76 29.412 98.76C30.4787 98.76 31.4187 98.9267 32.232 99.26C33.0587 99.58 33.6987 100.04 34.152 100.64C34.6054 101.24 34.832 101.947 34.832 102.76C34.832 103.387 34.692 103.947 34.412 104.44C34.132 104.92 33.7254 105.32 33.192 105.64ZM29.412 101.14C28.7587 101.14 28.232 101.3 27.832 101.62C27.4454 101.927 27.252 102.353 27.252 102.9C27.252 103.433 27.4454 103.853 27.832 104.16C28.2187 104.467 28.7454 104.62 29.412 104.62C30.0787 104.62 30.612 104.467 31.012 104.16C31.412 103.853 31.612 103.433 31.612 102.9C31.612 102.353 31.412 101.927 31.012 101.62C30.612 101.3 30.0787 101.14 29.412 101.14ZM29.412 110.86C30.2254 110.86 30.8654 110.68 31.332 110.32C31.812 109.947 32.052 109.453 32.052 108.84C32.052 108.227 31.812 107.74 31.332 107.38C30.8654 107.02 30.2254 106.84 29.412 106.84C28.612 106.84 27.9787 107.02 27.512 107.38C27.0454 107.74 26.812 108.227 26.812 108.84C26.812 109.467 27.0454 109.96 27.512 110.32C27.9787 110.68 28.612 110.86 29.412 110.86ZM42.8152 113.24C41.6552 113.24 40.6218 112.953 39.7152 112.38C38.8085 111.807 38.0952 110.98 37.5752 109.9C37.0685 108.807 36.8152 107.507 36.8152 106C36.8152 104.493 37.0685 103.2 37.5752 102.12C38.0952 101.027 38.8085 100.193 39.7152 99.62C40.6218 99.0467 41.6552 98.76 42.8152 98.76C43.9752 98.76 45.0085 99.0467 45.9152 99.62C46.8218 100.193 47.5285 101.027 48.0352 102.12C48.5552 103.2 48.8152 104.493 48.8152 106C48.8152 107.507 48.5552 108.807 48.0352 109.9C47.5285 110.98 46.8218 111.807 45.9152 112.38C45.0085 112.953 43.9752 113.24 42.8152 113.24ZM42.8152 110.5C43.6685 110.5 44.3352 110.133 44.8152 109.4C45.3085 108.667 45.5552 107.533 45.5552 106C45.5552 104.467 45.3085 103.333 44.8152 102.6C44.3352 101.867 43.6685 101.5 42.8152 101.5C41.9752 101.5 41.3085 101.867 40.8152 102.6C40.3352 103.333 40.0952 104.467 40.0952 106C40.0952 107.533 40.3352 108.667 40.8152 109.4C41.3085 110.133 41.9752 110.5 42.8152 110.5ZM51.9755 113.16C51.4288 113.16 50.9688 112.973 50.5955 112.6C50.2221 112.227 50.0355 111.76 50.0355 111.2C50.0355 110.627 50.2221 110.167 50.5955 109.82C50.9688 109.46 51.4288 109.28 51.9755 109.28C52.5221 109.28 52.9821 109.46 53.3555 109.82C53.7288 110.167 53.9155 110.627 53.9155 111.2C53.9155 111.76 53.7288 112.227 53.3555 112.6C52.9821 112.973 52.5221 113.16 51.9755 113.16ZM61.8559 104.22C62.7493 104.22 63.5626 104.4 64.2959 104.76C65.0293 105.12 65.6093 105.633 66.0359 106.3C66.4626 106.953 66.6759 107.713 66.6759 108.58C66.6759 109.513 66.4426 110.333 65.9759 111.04C65.5093 111.747 64.8693 112.293 64.0559 112.68C63.2559 113.053 62.3626 113.24 61.3759 113.24C59.4159 113.24 57.8826 112.64 56.7759 111.44C55.6693 110.24 55.1159 108.527 55.1159 106.3C55.1159 104.713 55.4159 103.353 56.0159 102.22C56.6159 101.087 57.4493 100.227 58.5159 99.64C59.5959 99.0533 60.8426 98.76 62.2559 98.76C63.0026 98.76 63.7159 98.8467 64.3959 99.02C65.0893 99.18 65.6759 99.4133 66.1559 99.72L64.9559 102.1C64.2626 101.633 63.3893 101.4 62.3359 101.4C61.1493 101.4 60.2093 101.747 59.5159 102.44C58.8226 103.133 58.4493 104.14 58.3959 105.46C59.2226 104.633 60.3759 104.22 61.8559 104.22ZM61.1959 110.82C61.8893 110.82 62.4493 110.633 62.8759 110.26C63.3159 109.887 63.5359 109.38 63.5359 108.74C63.5359 108.1 63.3159 107.593 62.8759 107.22C62.4493 106.833 61.8759 106.64 61.1559 106.64C60.4493 106.64 59.8693 106.84 59.4159 107.24C58.9626 107.627 58.7359 108.127 58.7359 108.74C58.7359 109.353 58.9559 109.853 59.3959 110.24C59.8359 110.627 60.4359 110.82 61.1959 110.82ZM77.4303 105.64C78.1236 105.987 78.6503 106.44 79.0103 107C79.3836 107.56 79.5703 108.207 79.5703 108.94C79.5703 109.807 79.3236 110.567 78.8303 111.22C78.337 111.86 77.6436 112.36 76.7503 112.72C75.857 113.067 74.8236 113.24 73.6503 113.24C72.477 113.24 71.4436 113.067 70.5503 112.72C69.6703 112.36 68.9836 111.86 68.4903 111.22C68.0103 110.567 67.7703 109.807 67.7703 108.94C67.7703 108.207 67.9503 107.56 68.3103 107C68.6836 106.44 69.2103 105.987 69.8903 105.64C69.3703 105.32 68.9703 104.92 68.6903 104.44C68.4103 103.947 68.2703 103.387 68.2703 102.76C68.2703 101.947 68.497 101.24 68.9503 100.64C69.4036 100.04 70.037 99.58 70.8503 99.26C71.6636 98.9267 72.597 98.76 73.6503 98.76C74.717 98.76 75.657 98.9267 76.4703 99.26C77.297 99.58 77.937 100.04 78.3903 100.64C78.8436 101.24 79.0703 101.947 79.0703 102.76C79.0703 103.387 78.9303 103.947 78.6503 104.44C78.3703 104.92 77.9636 105.32 77.4303 105.64ZM73.6503 101.14C72.997 101.14 72.4703 101.3 72.0703 101.62C71.6836 101.927 71.4903 102.353 71.4903 102.9C71.4903 103.433 71.6836 103.853 72.0703 104.16C72.457 104.467 72.9836 104.62 73.6503 104.62C74.317 104.62 74.8503 104.467 75.2503 104.16C75.6503 103.853 75.8503 103.433 75.8503 102.9C75.8503 102.353 75.6503 101.927 75.2503 101.62C74.8503 101.3 74.317 101.14 73.6503 101.14ZM73.6503 110.86C74.4636 110.86 75.1036 110.68 75.5703 110.32C76.0503 109.947 76.2903 109.453 76.2903 108.84C76.2903 108.227 76.0503 107.74 75.5703 107.38C75.1036 107.02 74.4636 106.84 73.6503 106.84C72.8503 106.84 72.217 107.02 71.7503 107.38C71.2836 107.74 71.0503 108.227 71.0503 108.84C71.0503 109.467 71.2836 109.96 71.7503 110.32C72.217 110.68 72.8503 110.86 73.6503 110.86ZM86.4534 99V113H83.2134V101.6H80.4134V99H86.4534ZM99.8295 108.78L98.3295 110.26V113H95.2095V98.16H98.3295V106.56L102.89 102.24H106.61L102.13 106.8L107.01 113H103.23L99.8295 108.78ZM122.115 102.08C123.461 102.08 124.528 102.48 125.315 103.28C126.115 104.067 126.515 105.253 126.515 106.84V113H123.395V107.32C123.395 106.467 123.215 105.833 122.855 105.42C122.508 104.993 122.008 104.78 121.355 104.78C120.621 104.78 120.041 105.02 119.615 105.5C119.188 105.967 118.975 106.667 118.975 107.6V113H115.855V107.32C115.855 105.627 115.175 104.78 113.815 104.78C113.095 104.78 112.521 105.02 112.095 105.5C111.668 105.967 111.455 106.667 111.455 107.6V113H108.335V102.24H111.315V103.48C111.715 103.027 112.201 102.68 112.775 102.44C113.361 102.2 114.001 102.08 114.695 102.08C115.455 102.08 116.141 102.233 116.755 102.54C117.368 102.833 117.861 103.267 118.235 103.84C118.675 103.28 119.228 102.847 119.895 102.54C120.575 102.233 121.315 102.08 122.115 102.08ZM135.671 104.78V106.46H128.691V105.12L132.151 102.12C132.524 101.8 132.778 101.533 132.911 101.32C133.058 101.093 133.131 100.88 133.131 100.68C133.131 100.4 133.011 100.173 132.771 100C132.531 99.8267 132.171 99.74 131.691 99.74C131.291 99.74 130.924 99.82 130.591 99.98C130.271 100.127 130.018 100.333 129.831 100.6L128.231 99.64C128.564 99.1333 129.038 98.7333 129.651 98.44C130.264 98.1467 131.004 98 131.871 98C132.951 98 133.798 98.2333 134.411 98.7C135.038 99.1667 135.351 99.7733 135.351 100.52C135.351 100.947 135.238 101.353 135.011 101.74C134.798 102.113 134.384 102.567 133.771 103.1L131.851 104.78H135.671Z" fill="#1F2937"/>
<path d="M16.824 126.8H18.008V136.976H24.28V138H16.824V126.8ZM33.4649 129.584V138H32.3769V136.464C32.0782 136.976 31.6675 137.376 31.1449 137.664C30.6222 137.941 30.0249 138.08 29.3529 138.08C28.2542 138.08 27.3849 137.776 26.7449 137.168C26.1155 136.549 25.8009 135.648 25.8009 134.464V129.584H26.9369V134.352C26.9369 135.237 27.1555 135.909 27.5929 136.368C28.0302 136.827 28.6542 137.056 29.4649 137.056C30.3502 137.056 31.0489 136.789 31.5609 136.256C32.0729 135.712 32.3289 134.96 32.3289 134V129.584H33.4649ZM39.5905 129.52C40.6892 129.52 41.5318 129.797 42.1185 130.352C42.7052 130.896 42.9985 131.707 42.9985 132.784V138H41.9105V136.688C41.6545 137.125 41.2758 137.467 40.7745 137.712C40.2838 137.957 39.6972 138.08 39.0145 138.08C38.0758 138.08 37.3292 137.856 36.7745 137.408C36.2198 136.96 35.9425 136.368 35.9425 135.632C35.9425 134.917 36.1985 134.341 36.7105 133.904C37.2332 133.467 38.0598 133.248 39.1905 133.248H41.8625V132.736C41.8625 132.011 41.6598 131.461 41.2545 131.088C40.8492 130.704 40.2572 130.512 39.4785 130.512C38.9452 130.512 38.4332 130.603 37.9425 130.784C37.4518 130.955 37.0305 131.195 36.6785 131.504L36.1665 130.656C36.5932 130.293 37.1052 130.016 37.7025 129.824C38.2998 129.621 38.9292 129.52 39.5905 129.52ZM39.1905 137.184C39.8305 137.184 40.3798 137.04 40.8385 136.752C41.2972 136.453 41.6385 136.027 41.8625 135.472V134.096H39.2225C37.7825 134.096 37.0625 134.597 37.0625 135.6C37.0625 136.091 37.2492 136.48 37.6225 136.768C37.9958 137.045 38.5185 137.184 39.1905 137.184ZM48.34 138.08C47.6573 138.08 47.0013 137.984 46.372 137.792C45.7533 137.589 45.268 137.339 44.916 137.04L45.428 136.144C45.78 136.421 46.2227 136.651 46.756 136.832C47.2893 137.003 47.844 137.088 48.42 137.088C49.188 137.088 49.7533 136.971 50.116 136.736C50.4893 136.491 50.676 136.149 50.676 135.712C50.676 135.403 50.5747 135.163 50.372 134.992C50.1693 134.811 49.9133 134.677 49.604 134.592C49.2947 134.496 48.884 134.405 48.372 134.32C47.6893 134.192 47.14 134.064 46.724 133.936C46.308 133.797 45.9507 133.568 45.652 133.248C45.364 132.928 45.22 132.485 45.22 131.92C45.22 131.216 45.5133 130.64 46.1 130.192C46.6867 129.744 47.5027 129.52 48.548 129.52C49.092 129.52 49.636 129.595 50.18 129.744C50.724 129.883 51.172 130.069 51.524 130.304L51.028 131.216C50.3347 130.736 49.508 130.496 48.548 130.496C47.8227 130.496 47.2733 130.624 46.9 130.88C46.5373 131.136 46.356 131.472 46.356 131.888C46.356 132.208 46.4573 132.464 46.66 132.656C46.8733 132.848 47.1347 132.992 47.444 133.088C47.7533 133.173 48.18 133.264 48.724 133.36C49.396 133.488 49.9347 133.616 50.34 133.744C50.7453 133.872 51.092 134.091 51.38 134.4C51.668 134.709 51.812 135.136 51.812 135.68C51.812 136.416 51.5027 137.003 50.884 137.44C50.276 137.867 49.428 138.08 48.34 138.08ZM62.4356 129.52C63.225 129.52 63.9396 129.701 64.5796 130.064C65.2196 130.416 65.721 130.917 66.0836 131.568C66.4463 132.219 66.6276 132.96 66.6276 133.792C66.6276 134.635 66.4463 135.381 66.0836 136.032C65.721 136.683 65.2196 137.189 64.5796 137.552C63.9503 137.904 63.2356 138.08 62.4356 138.08C61.753 138.08 61.1343 137.941 60.5796 137.664C60.0356 137.376 59.5876 136.96 59.2356 136.416V141.104H58.0996V129.584H59.1876V131.248C59.529 130.693 59.977 130.267 60.5316 129.968C61.097 129.669 61.7316 129.52 62.4356 129.52ZM62.3556 137.072C62.9423 137.072 63.4756 136.939 63.9556 136.672C64.4356 136.395 64.809 136.005 65.0756 135.504C65.353 135.003 65.4916 134.432 65.4916 133.792C65.4916 133.152 65.353 132.587 65.0756 132.096C64.809 131.595 64.4356 131.205 63.9556 130.928C63.4756 130.651 62.9423 130.512 62.3556 130.512C61.7583 130.512 61.2196 130.651 60.7396 130.928C60.2703 131.205 59.897 131.595 59.6196 132.096C59.353 132.587 59.2196 133.152 59.2196 133.792C59.2196 134.432 59.353 135.003 59.6196 135.504C59.897 136.005 60.2703 136.395 60.7396 136.672C61.2196 136.939 61.7583 137.072 62.3556 137.072ZM76.5274 129.584V138H75.4394V136.464C75.1407 136.976 74.73 137.376 74.2074 137.664C73.6847 137.941 73.0874 138.08 72.4154 138.08C71.3167 138.08 70.4474 137.776 69.8074 137.168C69.178 136.549 68.8634 135.648 68.8634 134.464V129.584H69.9994V134.352C69.9994 135.237 70.218 135.909 70.6554 136.368C71.0927 136.827 71.7167 137.056 72.5274 137.056C73.4127 137.056 74.1114 136.789 74.6234 136.256C75.1354 135.712 75.3914 134.96 75.3914 134V129.584H76.5274ZM79.709 126.128H80.845V138H79.709V126.128ZM86.9499 129.52C88.0485 129.52 88.8912 129.797 89.4779 130.352C90.0645 130.896 90.3579 131.707 90.3579 132.784V138H89.2699V136.688C89.0139 137.125 88.6352 137.467 88.1339 137.712C87.6432 137.957 87.0565 138.08 86.3739 138.08C85.4352 138.08 84.6885 137.856 84.1339 137.408C83.5792 136.96 83.3019 136.368 83.3019 135.632C83.3019 134.917 83.5579 134.341 84.0699 133.904C84.5925 133.467 85.4192 133.248 86.5499 133.248H89.2219V132.736C89.2219 132.011 89.0192 131.461 88.6139 131.088C88.2085 130.704 87.6165 130.512 86.8379 130.512C86.3045 130.512 85.7925 130.603 85.3019 130.784C84.8112 130.955 84.3899 131.195 84.0379 131.504L83.5259 130.656C83.9525 130.293 84.4645 130.016 85.0619 129.824C85.6592 129.621 86.2885 129.52 86.9499 129.52ZM86.5499 137.184C87.1899 137.184 87.7392 137.04 88.1979 136.752C88.6565 136.453 88.9979 136.027 89.2219 135.472V134.096H86.5819C85.1419 134.096 84.4219 134.597 84.4219 135.6C84.4219 136.091 84.6085 136.48 84.9819 136.768C85.3552 137.045 85.8779 137.184 86.5499 137.184ZM101.027 129.584V138H99.9394V136.464C99.6407 136.976 99.23 137.376 98.7074 137.664C98.1847 137.941 97.5874 138.08 96.9154 138.08C95.8167 138.08 94.9474 137.776 94.3074 137.168C93.678 136.549 93.3634 135.648 93.3634 134.464V129.584H94.4994V134.352C94.4994 135.237 94.718 135.909 95.1554 136.368C95.5927 136.827 96.2167 137.056 97.0274 137.056C97.9127 137.056 98.6114 136.789 99.1234 136.256C99.6354 135.712 99.8914 134.96 99.8914 134V129.584H101.027ZM110.653 138.08C109.97 138.08 109.314 137.984 108.685 137.792C108.066 137.589 107.581 137.339 107.229 137.04L107.741 136.144C108.093 136.421 108.535 136.651 109.069 136.832C109.602 137.003 110.157 137.088 110.733 137.088C111.501 137.088 112.066 136.971 112.429 136.736C112.802 136.491 112.989 136.149 112.989 135.712C112.989 135.403 112.887 135.163 112.685 134.992C112.482 134.811 112.226 134.677 111.917 134.592C111.607 134.496 111.197 134.405 110.685 134.32C110.002 134.192 109.453 134.064 109.037 133.936C108.621 133.797 108.263 133.568 107.965 133.248C107.677 132.928 107.533 132.485 107.533 131.92C107.533 131.216 107.826 130.64 108.413 130.192C108.999 129.744 109.815 129.52 110.861 129.52C111.405 129.52 111.949 129.595 112.493 129.744C113.037 129.883 113.485 130.069 113.837 130.304L113.341 131.216C112.647 130.736 111.821 130.496 110.861 130.496C110.135 130.496 109.586 130.624 109.213 130.88C108.85 131.136 108.669 131.472 108.669 131.888C108.669 132.208 108.77 132.464 108.973 132.656C109.186 132.848 109.447 132.992 109.757 133.088C110.066 133.173 110.493 133.264 111.036 133.36C111.709 133.488 112.247 133.616 112.653 133.744C113.058 133.872 113.405 134.091 113.693 134.4C113.981 134.709 114.125 135.136 114.125 135.68C114.125 136.416 113.815 137.003 113.197 137.44C112.589 137.867 111.741 138.08 110.653 138.08ZM123.809 129.584V138H122.721V136.464C122.422 136.976 122.011 137.376 121.489 137.664C120.966 137.941 120.369 138.08 119.697 138.08C118.598 138.08 117.729 137.776 117.089 137.168C116.459 136.549 116.145 135.648 116.145 134.464V129.584H117.281V134.352C117.281 135.237 117.499 135.909 117.937 136.368C118.374 136.827 118.998 137.056 119.809 137.056C120.694 137.056 121.393 136.789 121.905 136.256C122.417 135.712 122.673 134.96 122.673 134V129.584H123.809ZM126.99 126.128H128.126V138H126.99V126.128ZM134.231 129.52C135.33 129.52 136.172 129.797 136.759 130.352C137.346 130.896 137.639 131.707 137.639 132.784V138H136.551V136.688C136.295 137.125 135.916 137.467 135.415 137.712C134.924 137.957 134.338 138.08 133.655 138.08C132.716 138.08 131.97 137.856 131.415 137.408C130.86 136.96 130.583 136.368 130.583 135.632C130.583 134.917 130.839 134.341 131.351 133.904C131.874 133.467 132.7 133.248 133.831 133.248H136.503V132.736C136.503 132.011 136.3 131.461 135.895 131.088C135.49 130.704 134.898 130.512 134.119 130.512C133.586 130.512 133.074 130.603 132.583 130.784C132.092 130.955 131.671 131.195 131.319 131.504L130.807 130.656C131.234 130.293 131.746 130.016 132.343 129.824C132.94 129.621 133.57 129.52 134.231 129.52ZM133.831 137.184C134.471 137.184 135.02 137.04 135.479 136.752C135.938 136.453 136.279 136.027 136.503 135.472V134.096H133.863C132.423 134.096 131.703 134.597 131.703 135.6C131.703 136.091 131.89 136.48 132.263 136.768C132.636 137.045 133.159 137.184 133.831 137.184ZM152.92 129.584L149.736 138H148.664L146.008 131.104L143.352 138H142.28L139.112 129.584H140.2L142.84 136.736L145.544 129.584H146.52L149.208 136.736L151.88 129.584H152.92ZM161.725 134.144H154.685C154.749 135.019 155.085 135.728 155.693 136.272C156.301 136.805 157.069 137.072 157.997 137.072C158.519 137.072 158.999 136.981 159.437 136.8C159.874 136.608 160.253 136.331 160.573 135.968L161.213 136.704C160.839 137.152 160.37 137.493 159.805 137.728C159.25 137.963 158.637 138.08 157.965 138.08C157.101 138.08 156.333 137.899 155.661 137.536C154.999 137.163 154.482 136.651 154.109 136C153.735 135.349 153.549 134.613 153.549 133.792C153.549 132.971 153.725 132.235 154.077 131.584C154.439 130.933 154.93 130.427 155.549 130.064C156.178 129.701 156.882 129.52 157.661 129.52C158.439 129.52 159.138 129.701 159.757 130.064C160.375 130.427 160.861 130.933 161.213 131.584C161.565 132.224 161.741 132.96 161.741 133.792L161.725 134.144ZM157.661 130.496C156.85 130.496 156.167 130.757 155.613 131.28C155.069 131.792 154.759 132.464 154.685 133.296H160.653C160.578 132.464 160.263 131.792 159.709 131.28C159.165 130.757 158.482 130.496 157.661 130.496ZM166.309 138.08C165.626 138.08 164.97 137.984 164.341 137.792C163.722 137.589 163.237 137.339 162.885 137.04L163.397 136.144C163.749 136.421 164.191 136.651 164.725 136.832C165.258 137.003 165.813 137.088 166.389 137.088C167.157 137.088 167.722 136.971 168.085 136.736C168.458 136.491 168.645 136.149 168.645 135.712C168.645 135.403 168.543 135.163 168.341 134.992C168.138 134.811 167.882 134.677 167.573 134.592C167.263 134.496 166.853 134.405 166.341 134.32C165.658 134.192 165.109 134.064 164.693 133.936C164.277 133.797 163.919 133.568 163.621 133.248C163.333 132.928 163.189 132.485 163.189 131.92C163.189 131.216 163.482 130.64 164.069 130.192C164.655 129.744 165.471 129.52 166.517 129.52C167.061 129.52 167.605 129.595 168.149 129.744C168.693 129.883 169.141 130.069 169.493 130.304L168.997 131.216C168.303 130.736 167.477 130.496 166.517 130.496C165.791 130.496 165.242 130.624 164.869 130.88C164.506 131.136 164.325 131.472 164.325 131.888C164.325 132.208 164.426 132.464 164.629 132.656C164.842 132.848 165.103 132.992 165.413 133.088C165.722 133.173 166.149 133.264 166.693 133.36C167.365 133.488 167.903 133.616 168.309 133.744C168.714 133.872 169.061 134.091 169.349 134.4C169.637 134.709 169.781 135.136 169.781 135.68C169.781 136.416 169.471 137.003 168.853 137.44C168.245 137.867 167.397 138.08 166.309 138.08ZM171.881 129.584H173.017V138H171.881V129.584ZM172.457 127.744C172.222 127.744 172.025 127.664 171.865 127.504C171.705 127.344 171.625 127.152 171.625 126.928C171.625 126.715 171.705 126.528 171.865 126.368C172.025 126.208 172.222 126.128 172.457 126.128C172.692 126.128 172.889 126.208 173.049 126.368C173.209 126.517 173.289 126.699 173.289 126.912C173.289 127.147 173.209 127.344 173.049 127.504C172.889 127.664 172.692 127.744 172.457 127.744Z" fill="#374151"/>
</g>
<g filter="url(#filter1_dd_4_609)">
<rect x="235" y="216" width="148" height="72" rx="8" fill="white"/>
<path d="M256.24 244.36V247H245.66V244.9L251.06 239.8C251.633 239.253 252.02 238.787 252.22 238.4C252.42 238 252.52 237.607 252.52 237.22C252.52 236.66 252.327 236.233 251.94 235.94C251.567 235.633 251.013 235.48 250.28 235.48C249.667 235.48 249.113 235.6 248.62 235.84C248.127 236.067 247.713 236.413 247.38 236.88L245.02 235.36C245.567 234.547 246.32 233.913 247.28 233.46C248.24 232.993 249.34 232.76 250.58 232.76C251.62 232.76 252.527 232.933 253.3 233.28C254.087 233.613 254.693 234.093 255.12 234.72C255.56 235.333 255.78 236.06 255.78 236.9C255.78 237.66 255.62 238.373 255.3 239.04C254.98 239.707 254.36 240.467 253.44 241.32L250.22 244.36H256.24ZM263.538 247.24C262.378 247.24 261.344 246.953 260.438 246.38C259.531 245.807 258.818 244.98 258.298 243.9C257.791 242.807 257.538 241.507 257.538 240C257.538 238.493 257.791 237.2 258.298 236.12C258.818 235.027 259.531 234.193 260.438 233.62C261.344 233.047 262.378 232.76 263.538 232.76C264.698 232.76 265.731 233.047 266.638 233.62C267.544 234.193 268.251 235.027 268.758 236.12C269.278 237.2 269.538 238.493 269.538 240C269.538 241.507 269.278 242.807 268.758 243.9C268.251 244.98 267.544 245.807 266.638 246.38C265.731 246.953 264.698 247.24 263.538 247.24ZM263.538 244.5C264.391 244.5 265.058 244.133 265.538 243.4C266.031 242.667 266.278 241.533 266.278 240C266.278 238.467 266.031 237.333 265.538 236.6C265.058 235.867 264.391 235.5 263.538 235.5C262.698 235.5 262.031 235.867 261.538 236.6C261.058 237.333 260.818 238.467 260.818 240C260.818 241.533 261.058 242.667 261.538 243.4C262.031 244.133 262.698 244.5 263.538 244.5ZM272.698 247.16C272.151 247.16 271.691 246.973 271.318 246.6C270.945 246.227 270.758 245.76 270.758 245.2C270.758 244.627 270.945 244.167 271.318 243.82C271.691 243.46 272.151 243.28 272.698 243.28C273.245 243.28 273.705 243.46 274.078 243.82C274.451 244.167 274.638 244.627 274.638 245.2C274.638 245.76 274.451 246.227 274.078 246.6C273.705 246.973 273.245 247.16 272.698 247.16ZM282.828 238.7C284.054 238.9 284.994 239.36 285.648 240.08C286.301 240.787 286.628 241.667 286.628 242.72C286.628 243.533 286.414 244.287 285.988 244.98C285.561 245.66 284.908 246.207 284.028 246.62C283.161 247.033 282.094 247.24 280.828 247.24C279.841 247.24 278.868 247.113 277.908 246.86C276.961 246.593 276.154 246.22 275.488 245.74L276.748 243.26C277.281 243.66 277.894 243.973 278.588 244.2C279.294 244.413 280.014 244.52 280.748 244.52C281.561 244.52 282.201 244.367 282.668 244.06C283.134 243.74 283.368 243.293 283.368 242.72C283.368 241.573 282.494 241 280.748 241H279.268V238.86L282.148 235.6H276.188V233H285.988V235.1L282.828 238.7ZM298.486 244.36V247H287.906V244.9L293.306 239.8C293.879 239.253 294.266 238.787 294.466 238.4C294.666 238 294.766 237.607 294.766 237.22C294.766 236.66 294.573 236.233 294.186 235.94C293.813 235.633 293.259 235.48 292.526 235.48C291.913 235.48 291.359 235.6 290.866 235.84C290.373 236.067 289.959 236.413 289.626 236.88L287.266 235.36C287.813 234.547 288.566 233.913 289.526 233.46C290.486 232.993 291.586 232.76 292.826 232.76C293.866 232.76 294.773 232.933 295.546 233.28C296.333 233.613 296.939 234.093 297.366 234.72C297.806 235.333 298.026 236.06 298.026 236.9C298.026 237.66 297.866 238.373 297.546 239.04C297.226 239.707 296.606 240.467 295.686 241.32L292.466 244.36H298.486ZM310.744 233V235.1L305.544 247H302.024L307.044 235.64H302.404V237.92H299.524V233H310.744ZM313.05 247.16C312.503 247.16 312.043 246.973 311.67 246.6C311.296 246.227 311.11 245.76 311.11 245.2C311.11 244.627 311.296 244.167 311.67 243.82C312.043 243.46 312.503 243.28 313.05 243.28C313.596 243.28 314.056 243.46 314.43 243.82C314.803 244.167 314.99 244.627 314.99 245.2C314.99 245.76 314.803 246.227 314.43 246.6C314.056 246.973 313.596 247.16 313.05 247.16ZM327.099 244.36V247H316.519V244.9L321.919 239.8C322.493 239.253 322.879 238.787 323.079 238.4C323.279 238 323.379 237.607 323.379 237.22C323.379 236.66 323.186 236.233 322.799 235.94C322.426 235.633 321.873 235.48 321.139 235.48C320.526 235.48 319.973 235.6 319.479 235.84C318.986 236.067 318.573 236.413 318.239 236.88L315.879 235.36C316.426 234.547 317.179 233.913 318.139 233.46C319.099 232.993 320.199 232.76 321.439 232.76C322.479 232.76 323.386 232.933 324.159 233.28C324.946 233.613 325.553 234.093 325.979 234.72C326.419 235.333 326.639 236.06 326.639 236.9C326.639 237.66 326.479 238.373 326.159 239.04C325.839 239.707 325.219 240.467 324.299 241.32L321.079 244.36H327.099ZM334.397 247.24C333.237 247.24 332.204 246.953 331.297 246.38C330.391 245.807 329.677 244.98 329.157 243.9C328.651 242.807 328.397 241.507 328.397 240C328.397 238.493 328.651 237.2 329.157 236.12C329.677 235.027 330.391 234.193 331.297 233.62C332.204 233.047 333.237 232.76 334.397 232.76C335.557 232.76 336.591 233.047 337.497 233.62C338.404 234.193 339.111 235.027 339.617 236.12C340.137 237.2 340.397 238.493 340.397 240C340.397 241.507 340.137 242.807 339.617 243.9C339.111 244.98 338.404 245.807 337.497 246.38C336.591 246.953 335.557 247.24 334.397 247.24ZM334.397 244.5C335.251 244.5 335.917 244.133 336.397 243.4C336.891 242.667 337.137 241.533 337.137 240C337.137 238.467 336.891 237.333 336.397 236.6C335.917 235.867 335.251 235.5 334.397 235.5C333.557 235.5 332.891 235.867 332.397 236.6C331.917 237.333 331.677 238.467 331.677 240C331.677 241.533 331.917 242.667 332.397 243.4C332.891 244.133 333.557 244.5 334.397 244.5ZM346.771 238.26C348.745 238.26 350.198 238.653 351.131 239.44C352.078 240.227 352.551 241.28 352.551 242.6C352.551 243.453 352.338 244.233 351.911 244.94C351.485 245.633 350.831 246.193 349.951 246.62C349.085 247.033 348.011 247.24 346.731 247.24C345.745 247.24 344.771 247.113 343.811 246.86C342.865 246.593 342.058 246.22 341.391 245.74L342.671 243.26C343.205 243.66 343.818 243.973 344.511 244.2C345.205 244.413 345.918 244.52 346.651 244.52C347.465 244.52 348.105 244.36 348.571 244.04C349.038 243.72 349.271 243.273 349.271 242.7C349.271 242.1 349.025 241.647 348.531 241.34C348.051 241.033 347.211 240.88 346.011 240.88H342.431L343.151 233H351.691V235.6H345.851L345.631 238.26H346.771Z" fill="#1F2937"/>
<path d="M249 261.824H245.064V260.8H254.12V261.824H250.184V272H249V261.824ZM258.337 272.08C257.526 272.08 256.795 271.899 256.145 271.536C255.494 271.163 254.982 270.651 254.609 270C254.235 269.349 254.049 268.613 254.049 267.792C254.049 266.971 254.235 266.235 254.609 265.584C254.982 264.933 255.494 264.427 256.145 264.064C256.795 263.701 257.526 263.52 258.337 263.52C259.147 263.52 259.878 263.701 260.529 264.064C261.179 264.427 261.686 264.933 262.049 265.584C262.422 266.235 262.609 266.971 262.609 267.792C262.609 268.613 262.422 269.349 262.049 270C261.686 270.651 261.179 271.163 260.529 271.536C259.878 271.899 259.147 272.08 258.337 272.08ZM258.337 271.072C258.934 271.072 259.467 270.939 259.937 270.672C260.417 270.395 260.79 270.005 261.057 269.504C261.323 269.003 261.457 268.432 261.457 267.792C261.457 267.152 261.323 266.581 261.057 266.08C260.79 265.579 260.417 265.195 259.937 264.928C259.467 264.651 258.934 264.512 258.337 264.512C257.739 264.512 257.201 264.651 256.721 264.928C256.251 265.195 255.878 265.579 255.601 266.08C255.334 266.581 255.201 267.152 255.201 267.792C255.201 268.432 255.334 269.003 255.601 269.504C255.878 270.005 256.251 270.395 256.721 270.672C257.201 270.939 257.739 271.072 258.337 271.072ZM269.36 271.488C269.146 271.68 268.88 271.829 268.56 271.936C268.25 272.032 267.925 272.08 267.584 272.08C266.794 272.08 266.186 271.867 265.76 271.44C265.333 271.013 265.12 270.411 265.12 269.632V264.544H263.616V263.584H265.12V261.744H266.256V263.584H268.816V264.544H266.256V269.568C266.256 270.069 266.378 270.453 266.624 270.72C266.88 270.976 267.242 271.104 267.712 271.104C267.946 271.104 268.17 271.067 268.384 270.992C268.608 270.917 268.8 270.811 268.96 270.672L269.36 271.488ZM274.372 263.52C275.47 263.52 276.313 263.797 276.9 264.352C277.486 264.896 277.78 265.707 277.78 266.784V272H276.692V270.688C276.436 271.125 276.057 271.467 275.556 271.712C275.065 271.957 274.478 272.08 273.796 272.08C272.857 272.08 272.11 271.856 271.556 271.408C271.001 270.96 270.724 270.368 270.724 269.632C270.724 268.917 270.98 268.341 271.492 267.904C272.014 267.467 272.841 267.248 273.972 267.248H276.644V266.736C276.644 266.011 276.441 265.461 276.036 265.088C275.63 264.704 275.038 264.512 274.26 264.512C273.726 264.512 273.214 264.603 272.724 264.784C272.233 264.955 271.812 265.195 271.46 265.504L270.948 264.656C271.374 264.293 271.886 264.016 272.484 263.824C273.081 263.621 273.71 263.52 274.372 263.52ZM273.972 271.184C274.612 271.184 275.161 271.04 275.62 270.752C276.078 270.453 276.42 270.027 276.644 269.472V268.096H274.004C272.564 268.096 271.844 268.597 271.844 269.6C271.844 270.091 272.03 270.48 272.404 270.768C272.777 271.045 273.3 271.184 273.972 271.184ZM280.865 260.128H282.001V272H280.865V260.128ZM293.782 260.8C295.211 260.8 296.331 261.141 297.142 261.824C297.952 262.507 298.358 263.445 298.358 264.64C298.358 265.835 297.952 266.773 297.142 267.456C296.331 268.128 295.211 268.464 293.782 268.464H290.774V272H289.59V260.8H293.782ZM293.75 267.424C294.859 267.424 295.707 267.184 296.294 266.704C296.88 266.213 297.174 265.525 297.174 264.64C297.174 263.733 296.88 263.04 296.294 262.56C295.707 262.069 294.859 261.824 293.75 261.824H290.774V267.424H293.75ZM307.959 268.144H300.919C300.983 269.019 301.319 269.728 301.927 270.272C302.535 270.805 303.303 271.072 304.231 271.072C304.754 271.072 305.234 270.981 305.671 270.8C306.108 270.608 306.487 270.331 306.807 269.968L307.447 270.704C307.074 271.152 306.604 271.493 306.039 271.728C305.484 271.963 304.871 272.08 304.199 272.08C303.335 272.08 302.567 271.899 301.895 271.536C301.234 271.163 300.716 270.651 300.343 270C299.97 269.349 299.783 268.613 299.783 267.792C299.783 266.971 299.959 266.235 300.311 265.584C300.674 264.933 301.164 264.427 301.783 264.064C302.412 263.701 303.116 263.52 303.895 263.52C304.674 263.52 305.372 263.701 305.991 264.064C306.61 264.427 307.095 264.933 307.447 265.584C307.799 266.224 307.975 266.96 307.975 267.792L307.959 268.144ZM303.895 264.496C303.084 264.496 302.402 264.757 301.847 265.28C301.303 265.792 300.994 266.464 300.919 267.296H306.887C306.812 266.464 306.498 265.792 305.943 265.28C305.399 264.757 304.716 264.496 303.895 264.496ZM314.575 263.52C315.631 263.52 316.468 263.829 317.087 264.448C317.716 265.056 318.031 265.947 318.031 267.12V272H316.895V267.232C316.895 266.357 316.676 265.691 316.239 265.232C315.802 264.773 315.178 264.544 314.367 264.544C313.46 264.544 312.74 264.816 312.207 265.36C311.684 265.893 311.423 266.635 311.423 267.584V272H310.287V263.584H311.375V265.136C311.684 264.624 312.111 264.229 312.655 263.952C313.21 263.664 313.85 263.52 314.575 263.52ZM328.827 260.128V272H327.739V270.336C327.397 270.901 326.944 271.333 326.379 271.632C325.824 271.931 325.195 272.08 324.491 272.08C323.701 272.08 322.987 271.899 322.347 271.536C321.707 271.173 321.205 270.667 320.843 270.016C320.48 269.365 320.299 268.624 320.299 267.792C320.299 266.96 320.48 266.219 320.843 265.568C321.205 264.917 321.707 264.416 322.347 264.064C322.987 263.701 323.701 263.52 324.491 263.52C325.173 263.52 325.787 263.664 326.331 263.952C326.885 264.229 327.339 264.64 327.691 265.184V260.128H328.827ZM324.587 271.072C325.173 271.072 325.701 270.939 326.171 270.672C326.651 270.395 327.024 270.005 327.291 269.504C327.568 269.003 327.707 268.432 327.707 267.792C327.707 267.152 327.568 266.581 327.291 266.08C327.024 265.579 326.651 265.195 326.171 264.928C325.701 264.651 325.173 264.512 324.587 264.512C323.989 264.512 323.451 264.651 322.971 264.928C322.501 265.195 322.128 265.579 321.851 266.08C321.584 266.581 321.451 267.152 321.451 267.792C321.451 268.432 321.584 269.003 321.851 269.504C322.128 270.005 322.501 270.395 322.971 270.672C323.451 270.939 323.989 271.072 324.587 271.072ZM339.574 263.584V272H338.486V270.464C338.188 270.976 337.777 271.376 337.254 271.664C336.732 271.941 336.134 272.08 335.462 272.08C334.364 272.08 333.494 271.776 332.854 271.168C332.225 270.549 331.91 269.648 331.91 268.464V263.584H333.046V268.352C333.046 269.237 333.265 269.909 333.702 270.368C334.14 270.827 334.764 271.056 335.574 271.056C336.46 271.056 337.158 270.789 337.67 270.256C338.182 269.712 338.438 268.96 338.438 268V263.584H339.574ZM350.436 260.128V272H349.348V270.336C349.007 270.901 348.553 271.333 347.988 271.632C347.433 271.931 346.804 272.08 346.1 272.08C345.311 272.08 344.596 271.899 343.956 271.536C343.316 271.173 342.815 270.667 342.452 270.016C342.089 269.365 341.908 268.624 341.908 267.792C341.908 266.96 342.089 266.219 342.452 265.568C342.815 264.917 343.316 264.416 343.956 264.064C344.596 263.701 345.311 263.52 346.1 263.52C346.783 263.52 347.396 263.664 347.94 263.952C348.495 264.229 348.948 264.64 349.3 265.184V260.128H350.436ZM346.196 271.072C346.783 271.072 347.311 270.939 347.78 270.672C348.26 270.395 348.633 270.005 348.9 269.504C349.177 269.003 349.316 268.432 349.316 267.792C349.316 267.152 349.177 266.581 348.9 266.08C348.633 265.579 348.26 265.195 347.78 264.928C347.311 264.651 346.783 264.512 346.196 264.512C345.599 264.512 345.06 264.651 344.58 264.928C344.111 265.195 343.737 265.579 343.46 266.08C343.193 266.581 343.06 267.152 343.06 267.792C343.06 268.432 343.193 269.003 343.46 269.504C343.737 270.005 344.111 270.395 344.58 270.672C345.06 270.939 345.599 271.072 346.196 271.072ZM361.184 263.584V272H360.096V270.464C359.797 270.976 359.386 271.376 358.864 271.664C358.341 271.941 357.744 272.08 357.072 272.08C355.973 272.08 355.104 271.776 354.464 271.168C353.834 270.549 353.52 269.648 353.52 268.464V263.584H354.656V268.352C354.656 269.237 354.874 269.909 355.312 270.368C355.749 270.827 356.373 271.056 357.184 271.056C358.069 271.056 358.768 270.789 359.28 270.256C359.792 269.712 360.048 268.96 360.048 268V263.584H361.184ZM367.485 267.776L365.501 269.6V272H364.365V260.128H365.501V268.176L370.525 263.584H371.933L368.333 267.024L372.269 272H370.877L367.485 267.776Z" fill="#374151"/>
</g>
<g filter="url(#filter2_dd_4_609)">
<rect x="15" y="334" width="151" height="72" rx="8" fill="white"/>
<path d="M35.36 357.64C36.0533 357.987 36.58 358.44 36.94 359C37.3133 359.56 37.5 360.207 37.5 360.94C37.5 361.807 37.2533 362.567 36.76 363.22C36.2667 363.86 35.5733 364.36 34.68 364.72C33.7867 365.067 32.7533 365.24 31.58 365.24C30.4067 365.24 29.3733 365.067 28.48 364.72C27.6 364.36 26.9133 363.86 26.42 363.22C25.94 362.567 25.7 361.807 25.7 360.94C25.7 360.207 25.88 359.56 26.24 359C26.6133 358.44 27.14 357.987 27.82 357.64C27.3 357.32 26.9 356.92 26.62 356.44C26.34 355.947 26.2 355.387 26.2 354.76C26.2 353.947 26.4267 353.24 26.88 352.64C27.3333 352.04 27.9667 351.58 28.78 351.26C29.5933 350.927 30.5267 350.76 31.58 350.76C32.6467 350.76 33.5867 350.927 34.4 351.26C35.2267 351.58 35.8667 352.04 36.32 352.64C36.7733 353.24 37 353.947 37 354.76C37 355.387 36.86 355.947 36.58 356.44C36.3 356.92 35.8933 357.32 35.36 357.64ZM31.58 353.14C30.9267 353.14 30.4 353.3 30 353.62C29.6133 353.927 29.42 354.353 29.42 354.9C29.42 355.433 29.6133 355.853 30 356.16C30.3867 356.467 30.9133 356.62 31.58 356.62C32.2467 356.62 32.78 356.467 33.18 356.16C33.58 355.853 33.78 355.433 33.78 354.9C33.78 354.353 33.58 353.927 33.18 353.62C32.78 353.3 32.2467 353.14 31.58 353.14ZM31.58 362.86C32.3933 362.86 33.0333 362.68 33.5 362.32C33.98 361.947 34.22 361.453 34.22 360.84C34.22 360.227 33.98 359.74 33.5 359.38C33.0333 359.02 32.3933 358.84 31.58 358.84C30.78 358.84 30.1467 359.02 29.68 359.38C29.2133 359.74 28.98 360.227 28.98 360.84C28.98 361.467 29.2133 361.96 29.68 362.32C30.1467 362.68 30.78 362.86 31.58 362.86ZM44.3831 351V365H41.1431V353.6H38.3431V351H44.3831Z" fill="#1F2937"/>
<path d="M30.296 384.736L28.008 387.056V390H26.824V378.8H28.008V385.568L34.584 378.8H35.944L31.096 383.872L36.28 390H34.872L30.296 384.736ZM40.6843 381.52C41.7829 381.52 42.6256 381.797 43.2123 382.352C43.7989 382.896 44.0923 383.707 44.0923 384.784V390H43.0043V388.688C42.7483 389.125 42.3696 389.467 41.8683 389.712C41.3776 389.957 40.7909 390.08 40.1083 390.08C39.1696 390.08 38.4229 389.856 37.8683 389.408C37.3136 388.96 37.0363 388.368 37.0363 387.632C37.0363 386.917 37.2923 386.341 37.8043 385.904C38.3269 385.467 39.1536 385.248 40.2843 385.248H42.9563V384.736C42.9563 384.011 42.7536 383.461 42.3483 383.088C41.9429 382.704 41.3509 382.512 40.5723 382.512C40.0389 382.512 39.5269 382.603 39.0363 382.784C38.5456 382.955 38.1243 383.195 37.7723 383.504L37.2603 382.656C37.6869 382.293 38.1989 382.016 38.7963 381.824C39.3936 381.621 40.0229 381.52 40.6843 381.52ZM40.2843 389.184C40.9243 389.184 41.4736 389.04 41.9323 388.752C42.3909 388.453 42.7323 388.027 42.9563 387.472V386.096H40.3163C38.8763 386.096 38.1562 386.597 38.1562 387.6C38.1562 388.091 38.3429 388.48 38.7163 388.768C39.0896 389.045 39.6123 389.184 40.2843 389.184ZM51.5138 381.52C52.3031 381.52 53.0178 381.701 53.6578 382.064C54.2978 382.416 54.7991 382.917 55.1618 383.568C55.5244 384.219 55.7058 384.96 55.7058 385.792C55.7058 386.624 55.5244 387.365 55.1618 388.016C54.7991 388.667 54.2978 389.173 53.6578 389.536C53.0178 389.899 52.3031 390.08 51.5138 390.08C50.8098 390.08 50.1751 389.931 49.6098 389.632C49.0551 389.333 48.6071 388.901 48.2658 388.336V390H47.1778V378.128H48.3138V383.184C48.6658 382.64 49.1138 382.229 49.6578 381.952C50.2124 381.664 50.8311 381.52 51.5138 381.52ZM51.4338 389.072C52.0204 389.072 52.5538 388.939 53.0338 388.672C53.5138 388.395 53.8871 388.005 54.1538 387.504C54.4311 387.003 54.5698 386.432 54.5698 385.792C54.5698 385.152 54.4311 384.581 54.1538 384.08C53.8871 383.579 53.5138 383.195 53.0338 382.928C52.5538 382.651 52.0204 382.512 51.4338 382.512C50.8364 382.512 50.2978 382.651 49.8177 382.928C49.3484 383.195 48.9751 383.579 48.6978 384.08C48.4311 384.581 48.2978 385.152 48.2978 385.792C48.2978 386.432 48.4311 387.003 48.6978 387.504C48.9751 388.005 49.3484 388.395 49.8177 388.672C50.2978 388.939 50.8364 389.072 51.4338 389.072ZM65.6055 381.584V390H64.5175V388.464C64.2188 388.976 63.8082 389.376 63.2855 389.664C62.7628 389.941 62.1655 390.08 61.4935 390.08C60.3948 390.08 59.5255 389.776 58.8855 389.168C58.2562 388.549 57.9415 387.648 57.9415 386.464V381.584H59.0775V386.352C59.0775 387.237 59.2962 387.909 59.7335 388.368C60.1708 388.827 60.7948 389.056 61.6055 389.056C62.4908 389.056 63.1895 388.789 63.7015 388.256C64.2135 387.712 64.4695 386.96 64.4695 386V381.584H65.6055ZM73.1231 381.52C73.9125 381.52 74.6271 381.701 75.2671 382.064C75.9071 382.416 76.4085 382.917 76.7711 383.568C77.1338 384.219 77.3151 384.96 77.3151 385.792C77.3151 386.635 77.1338 387.381 76.7711 388.032C76.4085 388.683 75.9071 389.189 75.2671 389.552C74.6378 389.904 73.9231 390.08 73.1231 390.08C72.4405 390.08 71.8218 389.941 71.2671 389.664C70.7231 389.376 70.2751 388.96 69.9231 388.416V393.104H68.7871V381.584H69.8751V383.248C70.2165 382.693 70.6645 382.267 71.2191 381.968C71.7845 381.669 72.4191 381.52 73.1231 381.52ZM73.0431 389.072C73.6298 389.072 74.1631 388.939 74.6431 388.672C75.1231 388.395 75.4965 388.005 75.7631 387.504C76.0405 387.003 76.1791 386.432 76.1791 385.792C76.1791 385.152 76.0405 384.587 75.7631 384.096C75.4965 383.595 75.1231 383.205 74.6431 382.928C74.1631 382.651 73.6298 382.512 73.0431 382.512C72.4458 382.512 71.9071 382.651 71.4271 382.928C70.9578 383.205 70.5845 383.595 70.3071 384.096C70.0405 384.587 69.9071 385.152 69.9071 385.792C69.9071 386.432 70.0405 387.003 70.3071 387.504C70.5845 388.005 70.9578 388.395 71.4271 388.672C71.9071 388.939 72.4458 389.072 73.0431 389.072ZM82.528 381.52C83.6267 381.52 84.4693 381.797 85.056 382.352C85.6427 382.896 85.936 383.707 85.936 384.784V390H84.848V388.688C84.592 389.125 84.2133 389.467 83.712 389.712C83.2213 389.957 82.6347 390.08 81.952 390.08C81.0133 390.08 80.2667 389.856 79.712 389.408C79.1573 388.96 78.88 388.368 78.88 387.632C78.88 386.917 79.136 386.341 79.648 385.904C80.1707 385.467 80.9973 385.248 82.128 385.248H84.8V384.736C84.8 384.011 84.5973 383.461 84.192 383.088C83.7867 382.704 83.1947 382.512 82.416 382.512C81.8827 382.512 81.3707 382.603 80.88 382.784C80.3893 382.955 79.968 383.195 79.616 383.504L79.104 382.656C79.5307 382.293 80.0427 382.016 80.64 381.824C81.2373 381.621 81.8667 381.52 82.528 381.52ZM82.128 389.184C82.768 389.184 83.3173 389.04 83.776 388.752C84.2347 388.453 84.576 388.027 84.8 387.472V386.096H82.16C80.72 386.096 80 386.597 80 387.6C80 388.091 80.1867 388.48 80.56 388.768C80.9333 389.045 81.456 389.184 82.128 389.184ZM93.4535 389.488C93.2402 389.68 92.9735 389.829 92.6535 389.936C92.3442 390.032 92.0188 390.08 91.6775 390.08C90.8882 390.08 90.2802 389.867 89.8535 389.44C89.4268 389.013 89.2135 388.411 89.2135 387.632V382.544H87.7095V381.584H89.2135V379.744H90.3495V381.584H92.9095V382.544H90.3495V387.568C90.3495 388.069 90.4722 388.453 90.7175 388.72C90.9735 388.976 91.3362 389.104 91.8055 389.104C92.0402 389.104 92.2642 389.067 92.4775 388.992C92.7015 388.917 92.8935 388.811 93.0535 388.672L93.4535 389.488ZM102.553 386.144H95.5126C95.5766 387.019 95.9126 387.728 96.5206 388.272C97.1286 388.805 97.8966 389.072 98.8246 389.072C99.3473 389.072 99.8273 388.981 100.265 388.8C100.702 388.608 101.081 388.331 101.401 387.968L102.041 388.704C101.667 389.152 101.198 389.493 100.633 389.728C100.078 389.963 99.4646 390.08 98.7926 390.08C97.9286 390.08 97.1606 389.899 96.4886 389.536C95.8273 389.163 95.31 388.651 94.9366 388C94.5633 387.349 94.3766 386.613 94.3766 385.792C94.3766 384.971 94.5526 384.235 94.9046 383.584C95.2673 382.933 95.758 382.427 96.3766 382.064C97.006 381.701 97.71 381.52 98.4886 381.52C99.2673 381.52 99.966 381.701 100.585 382.064C101.203 382.427 101.689 382.933 102.041 383.584C102.393 384.224 102.569 384.96 102.569 385.792L102.553 386.144ZM98.4886 382.496C97.678 382.496 96.9953 382.757 96.4406 383.28C95.8966 383.792 95.5873 384.464 95.5126 385.296H101.481C101.406 384.464 101.091 383.792 100.537 383.28C99.9926 382.757 99.31 382.496 98.4886 382.496ZM109.169 381.52C110.225 381.52 111.062 381.829 111.681 382.448C112.31 383.056 112.625 383.947 112.625 385.12V390H111.489V385.232C111.489 384.357 111.27 383.691 110.833 383.232C110.396 382.773 109.772 382.544 108.961 382.544C108.054 382.544 107.334 382.816 106.801 383.36C106.278 383.893 106.017 384.635 106.017 385.584V390H104.881V381.584H105.969V383.136C106.278 382.624 106.705 382.229 107.249 381.952C107.804 381.664 108.444 381.52 109.169 381.52ZM123.609 384.736L121.321 387.056V390H120.137V378.8H121.321V385.568L127.897 378.8H129.257L124.409 383.872L129.593 390H128.185L123.609 384.736ZM134.321 390.08C133.51 390.08 132.78 389.899 132.129 389.536C131.478 389.163 130.966 388.651 130.593 388C130.22 387.349 130.033 386.613 130.033 385.792C130.033 384.971 130.22 384.235 130.593 383.584C130.966 382.933 131.478 382.427 132.129 382.064C132.78 381.701 133.51 381.52 134.321 381.52C135.132 381.52 135.862 381.701 136.513 382.064C137.164 382.427 137.67 382.933 138.033 383.584C138.406 384.235 138.593 384.971 138.593 385.792C138.593 386.613 138.406 387.349 138.033 388C137.67 388.651 137.164 389.163 136.513 389.536C135.862 389.899 135.132 390.08 134.321 390.08ZM134.321 389.072C134.918 389.072 135.452 388.939 135.921 388.672C136.401 388.395 136.774 388.005 137.041 387.504C137.308 387.003 137.441 386.432 137.441 385.792C137.441 385.152 137.308 384.581 137.041 384.08C136.774 383.579 136.401 383.195 135.921 382.928C135.452 382.651 134.918 382.512 134.321 382.512C133.724 382.512 133.185 382.651 132.705 382.928C132.236 383.195 131.862 383.579 131.585 384.08C131.318 384.581 131.185 385.152 131.185 385.792C131.185 386.432 131.318 387.003 131.585 387.504C131.862 388.005 132.236 388.395 132.705 388.672C133.185 388.939 133.724 389.072 134.321 389.072ZM145.344 389.488C145.131 389.68 144.864 389.829 144.544 389.936C144.235 390.032 143.909 390.08 143.568 390.08C142.779 390.08 142.171 389.867 141.744 389.44C141.317 389.013 141.104 388.411 141.104 387.632V382.544H139.6V381.584H141.104V379.744H142.24V381.584H144.8V382.544H142.24V387.568C142.24 388.069 142.363 388.453 142.608 388.72C142.864 388.976 143.227 389.104 143.696 389.104C143.931 389.104 144.155 389.067 144.368 388.992C144.592 388.917 144.784 388.811 144.944 388.672L145.344 389.488ZM150.356 381.52C151.455 381.52 152.297 381.797 152.884 382.352C153.471 382.896 153.764 383.707 153.764 384.784V390H152.676V388.688C152.42 389.125 152.041 389.467 151.54 389.712C151.049 389.957 150.463 390.08 149.78 390.08C148.841 390.08 148.095 389.856 147.54 389.408C146.985 388.96 146.708 388.368 146.708 387.632C146.708 386.917 146.964 386.341 147.476 385.904C147.999 385.467 148.825 385.248 149.956 385.248H152.628V384.736C152.628 384.011 152.425 383.461 152.02 383.088C151.615 382.704 151.023 382.512 150.244 382.512C149.711 382.512 149.199 382.603 148.708 382.784C148.217 382.955 147.796 383.195 147.444 383.504L146.932 382.656C147.359 382.293 147.871 382.016 148.468 381.824C149.065 381.621 149.695 381.52 150.356 381.52ZM149.956 389.184C150.596 389.184 151.145 389.04 151.604 388.752C152.063 388.453 152.404 388.027 152.628 387.472V386.096H149.988C148.548 386.096 147.828 386.597 147.828 387.6C147.828 388.091 148.015 388.48 148.388 388.768C148.761 389.045 149.284 389.184 149.956 389.184Z" fill="#374151"/>
</g>
<defs>
<filter id="filter0_dd_4_609" x="0" y="81" width="190" height="82" filterUnits="userSpaceOnUse" color-interpolation-filters="sRGB">
<feFlood flood-opacity="0" result="BackgroundImageFix"/>
<feColorMatrix in="SourceAlpha" type="matrix" values="0 0 0 0 0 0 0 0 0 0 0 0 0 0 0 0 0 0 127 0" result="hardAlpha"/>
<feMorphology radius="1" operator="erode" in="SourceAlpha" result="effect1_dropShadow_4_609"/>
<feOffset dy="2"/>
<feGaussianBlur stdDeviation="2"/>
<feColorMatrix type="matrix" values="0 0 0 0 0 0 0 0 0 0 0 0 0 0 0 0 0 0 0.06 0"/>
<feBlend mode="normal" in2="BackgroundImageFix" result="effect1_dropShadow_4_609"/>
<feColorMatrix in="SourceAlpha" type="matrix" values="0 0 0 0 0 0 0 0 0 0 0 0 0 0 0 0 0 0 127 0" result="hardAlpha"/>
<feMorphology radius="1" operator="erode" in="SourceAlpha" result="effect2_dropShadow_4_609"/>
<feOffset dy="4"/>
<feGaussianBlur stdDeviation="3"/>
<feColorMatrix type="matrix" values="0 0 0 0 0 0 0 0 0 0 0 0 0 0 0 0 0 0 0.1 0"/>
<feBlend mode="normal" in2="effect1_dropShadow_4_609" result="effect2_dropShadow_4_609"/>
<feBlend mode="normal" in="SourceGraphic" in2="effect2_dropShadow_4_609" result="shape"/>
</filter>
<filter id="filter1_dd_4_609" x="230" y="215" width="158" height="82" filterUnits="userSpaceOnUse" color-interpolation-filters="sRGB">
<feFlood flood-opacity="0" result="BackgroundImageFix"/>
<feColorMatrix in="SourceAlpha" type="matrix" values="0 0 0 0 0 0 0 0 0 0 0 0 0 0 0 0 0 0 127 0" result="hardAlpha"/>
<feMorphology radius="1" operator="erode" in="SourceAlpha" result="effect1_dropShadow_4_609"/>
<feOffset dy="2"/>
<feGaussianBlur stdDeviation="2"/>
<feColorMatrix type="matrix" values="0 0 0 0 0 0 0 0 0 0 0 0 0 0 0 0 0 0 0.06 0"/>
<feBlend mode="normal" in2="BackgroundImageFix" result="effect1_dropShadow_4_609"/>
<feColorMatrix in="SourceAlpha" type="matrix" values="0 0 0 0 0 0 0 0 0 0 0 0 0 0 0 0 0 0 127 0" result="hardAlpha"/>
<feMorphology radius="1" operator="erode" in="SourceAlpha" result="effect2_dropShadow_4_609"/>
<feOffset dy="4"/>
<feGaussianBlur stdDeviation="3"/>
<feColorMatrix type="matrix" values="0 0 0 0 0 0 0 0 0 0 0 0 0 0 0 0 0 0 0.1 0"/>
<feBlend mode="normal" in2="effect1_dropShadow_4_609" result="effect2_dropShadow_4_609"/>
<feBlend mode="normal" in="SourceGraphic" in2="effect2_dropShadow_4_609" result="shape"/>
</filter>
<filter id="filter2_dd_4_609" x="10" y="333" width="161" height="82" filterUnits="userSpaceOnUse" color-interpolation-filters="sRGB">
<feFlood flood-opacity="0" result="BackgroundImageFix"/>
<feColorMatrix in="SourceAlpha" type="matrix" values="0 0 0 0 0 0 0 0 0 0 0 0 0 0 0 0 0 0 127 0" result="hardAlpha"/>
<feMorphology radius="1" operator="erode" in="SourceAlpha" result="effect1_dropShadow_4_609"/>
<feOffset dy="2"/>
<feGaussianBlur stdDeviation="2"/>
<feColorMatrix type="matrix" values="0 0 0 0 0 0 0 0 0 0 0 0 0 0 0 0 0 0 0.06 0"/>
<feBlend mode="normal" in2="BackgroundImageFix" result="effect1_dropShadow_4_609"/>
<feColorMatrix in="SourceAlpha" type="matrix" values="0 0 0 0 0 0 0 0 0 0 0 0 0 0 0 0 0 0 127 0" result="hardAlpha"/>
<feMorphology radius="1" operator="erode" in="SourceAlpha" result="effect2_dropShadow_4_609"/>
<feOffset dy="4"/>
<feGaussianBlur stdDeviation="3"/>
<feColorMatrix type="matrix" values="0 0 0 0 0 0 0 0 0 0 0 0 0 0 0 0 0 0 0.1 0"/>
<feBlend mode="normal" in2="effect1_dropShadow_4_609" result="effect2_dropShadow_4_609"/>
<feBlend mode="normal" in="SourceGraphic" in2="effect2_dropShadow_4_609" result="shape"/>
</filter>
</defs>
</svg>
