<svg width="40" height="34" viewBox="0 0 40 34" fill="none" xmlns="http://www.w3.org/2000/svg">
<path d="M16.0937 0.601563C9.45312 0.984376 5.03906 2.60938 2.58594 5.5625C1 7.47656 0.195312 9.72656 0.03125 12.7422L-0.0234375 13.7188L4.10937 13.7031L8.24218 13.6797L8.32812 12.9688C8.54687 11.2109 9.07031 9.79688 9.875 8.78125C10.7891 7.63281 12.3672 6.92969 14.5703 6.6875C15.1406 6.625 16.75 6.59375 19.4062 6.60156C25.7422 6.61719 27.0859 6.75781 28.7031 7.60938C29.9766 8.27344 30.8125 9.42969 31.2891 11.1719C31.4453 11.75 31.7031 13.2656 31.7187 13.6563C31.7187 13.6953 33.5859 13.7188 35.8594 13.7188H40V13.2188C40 12.4844 39.8594 11.2109 39.6797 10.3594C39.1484 7.76563 37.875 5.625 35.9766 4.14844C33.25 2.02344 29.4609 0.921876 23.7187 0.593751C22.1406 0.507813 17.6797 0.507813 16.0937 0.601563Z" fill="white"/>
<path d="M12.2188 10.8907C11.4297 10.9766 11.4062 11.0235 11.4062 12.422V13.6016L11 14.0704C8.76562 16.6329 3.84375 23.3204 3.08594 24.8204L2.89062 25.1954V28.9298C2.89062 32.5157 2.89844 32.672 3.04688 32.922C3.13281 33.0626 3.3125 33.2423 3.45312 33.3282C3.71094 33.4845 3.88281 33.4845 19.5938 33.4845C37.2891 33.4845 35.8281 33.5313 36.1875 32.9454C36.3672 32.6641 36.3672 32.6563 36.3906 28.9766L36.4141 25.2891L36.2031 24.8751C35.4609 23.4063 30.7109 16.9376 28.4609 14.336L27.8125 13.5782V12.422C27.8125 11.7813 27.7812 11.2188 27.75 11.172C27.625 10.9845 27.3359 10.9141 26.4453 10.8673C25.3125 10.8048 24.1797 10.9141 23.9922 11.0938C23.8906 11.1954 23.8594 11.422 23.8438 12.1954L23.8125 13.172H19.6016H15.3984L15.375 12.1876C15.3438 10.8907 15.3828 10.922 13.8281 10.8751C13.2031 10.8595 12.4766 10.8673 12.2188 10.8907ZM15.4688 16.4298C15.7344 16.586 16.0156 17.0626 16.0156 17.3516C16.0156 17.6407 15.7344 18.1173 15.4688 18.2735C15.1641 18.4532 14.6484 18.4454 14.3359 18.2501C14.0547 18.0782 13.8281 17.6798 13.8281 17.3516C13.8281 17.0704 14.1016 16.5938 14.3594 16.4298C14.6328 16.2657 15.1875 16.2579 15.4688 16.4298ZM20.2656 16.5313C20.8125 17.0079 20.8125 17.6876 20.2734 18.1641C19.5938 18.7579 18.5156 18.2657 18.5156 17.3673C18.5156 16.7345 18.9688 16.297 19.625 16.297C19.9219 16.297 20.0469 16.3438 20.2656 16.5313ZM24.7734 16.4141C25.4531 16.7735 25.4922 17.7891 24.8438 18.2501C24.5781 18.4376 24.0312 18.4766 23.7578 18.336C23.4688 18.1798 23.1953 17.7345 23.1875 17.4063C23.1797 16.5704 24.0312 16.0391 24.7734 16.4141ZM15.3125 20.2501C16.0938 20.5626 16.2344 21.4766 15.5859 22.0782C15.4141 22.2423 15.2969 22.2735 14.9219 22.2735C14.5469 22.2735 14.4297 22.2423 14.2578 22.0782C13.625 21.4845 13.7344 20.6173 14.4922 20.2735C14.875 20.0938 14.9219 20.0938 15.3125 20.2501ZM20.1797 20.3438C20.4766 20.5235 20.7344 21.0626 20.6641 21.3907C20.4531 22.3985 19.2266 22.6485 18.6641 21.797C18.375 21.3595 18.5234 20.6876 18.9609 20.3751C19.3438 20.1016 19.7422 20.0938 20.1797 20.3438ZM24.5391 20.2032C25.4141 20.4454 25.5938 21.6876 24.8203 22.1563C24.0859 22.6095 23.2031 22.086 23.2031 21.2032C23.2031 20.6641 23.6094 20.2345 24.2188 20.1329C24.2422 20.1251 24.3828 20.1641 24.5391 20.2032ZM15.5078 24.2188C16.1641 24.6485 16.1484 25.5938 15.4766 26.0391C14.7656 26.5157 13.7656 25.9141 13.8516 25.0548C13.9375 24.2345 14.8359 23.7813 15.5078 24.2188ZM20.0859 24.1954C20.4844 24.3985 20.7344 24.8985 20.6562 25.3282C20.5859 25.7032 20.1875 26.1173 19.8203 26.1798C19.4219 26.2579 19.1797 26.1798 18.8516 25.8829C18.3047 25.3829 18.4531 24.5157 19.1406 24.172C19.4922 23.9923 19.7031 23.9923 20.0859 24.1954ZM24.6328 24.1407C25.0469 24.3126 25.3125 24.6876 25.3125 25.1016C25.3125 25.9454 24.5312 26.4454 23.7734 26.086C23.1875 25.8126 23.0078 24.9845 23.4141 24.4923C23.625 24.2423 23.9922 24.0391 24.2422 24.0313C24.3203 24.0313 24.4922 24.0782 24.6328 24.1407Z" fill="white"/>
<path d="M0 15.0627C0.0078125 15.9767 0.367188 16.6642 1.01562 17.0236C1.60156 17.3517 2.11719 17.4064 4.41406 17.3752C6.69531 17.3439 6.875 17.3127 7.48438 16.8674C7.91406 16.547 8.28125 15.5939 8.28125 14.797V14.5783H4.14062H0V15.0627Z" fill="white"/>
<path d="M31.7188 14.9454C31.7188 15.1485 31.7812 15.5235 31.8516 15.7813C32.0156 16.3673 32.4531 16.836 33.0156 17.0313C33.9844 17.3751 37.8438 17.3516 38.7656 17.0001C39.5469 16.711 40 15.9688 40 14.9923V14.5782H35.8594H31.7188V14.9454Z" fill="white"/>
</svg>