<svg width="40" height="40" viewBox="0 0 40 40" fill="none" xmlns="http://www.w3.org/2000/svg">
<path d="M18.7656 0.109425C17.8516 0.335987 16.7891 1.01567 16.1172 1.81255C15.6484 2.36724 15.2344 3.33599 15.1016 4.1563C14.9844 4.88286 14.9922 4.89849 16.0078 17.0625C16.5703 23.7579 17.0703 29.3907 17.1094 29.586C17.6172 31.8438 20.5547 32.6329 22.1406 30.9375C22.5391 30.5157 22.7734 30.0782 22.8906 29.586C22.9297 29.3907 23.4297 23.7579 23.9922 17.0625C25.0078 4.89849 25.0156 4.88286 24.8984 4.1563C24.6328 2.51567 23.6484 1.18755 22.1484 0.4688C21.8047 0.304737 21.3359 0.132862 21.1094 0.0859871C20.5625 -0.0312004 19.2812 -0.0155754 18.7656 0.109425Z" fill="white"/>
<path d="M19.5234 33.6015C19.2734 33.625 18.8516 33.7578 18.5859 33.8828C16.6562 34.7969 16.1641 37.4219 17.625 38.9922C18.2891 39.6953 19 40 20 40C21 40 21.7109 39.6953 22.375 38.9922C23.9844 37.2578 23.2031 34.3672 20.9375 33.6875C20.5469 33.5703 20.0313 33.539 19.5234 33.6015Z" fill="white"/>
</svg>