<svg width="40" height="40" viewBox="0 0 40 40" fill="none" xmlns="http://www.w3.org/2000/svg">
<path d="M2.35156 5.70311C1.42188 6.03905 0.734375 6.66405 0.289062 7.5703L0.0390625 8.08592V20V31.914L0.289062 32.4297C0.742188 33.3594 1.44531 33.9765 2.39062 34.2969C2.84375 34.4531 3.07031 34.4531 20.1562 34.4375L37.4609 34.414L38.0078 34.1484C38.7266 33.7969 39.3438 33.1797 39.6953 32.4609L39.9609 31.914V20V8.08592L39.6953 7.53905C39.3438 6.8203 38.7266 6.20311 38.0078 5.85155L37.4609 5.58592L20.1172 5.5703C3.15625 5.55467 2.76562 5.55467 2.35156 5.70311ZM34.6719 10.4297C35.0312 10.6406 35.2344 11 35.2344 11.4062C35.2344 11.8125 35.0312 12.1719 34.6719 12.3828C34.4219 12.539 34.2734 12.539 27.8906 12.539C21.5078 12.539 21.3594 12.539 21.1094 12.3828C20.7578 12.1719 20.5469 11.8125 20.5469 11.414C20.5469 10.8437 20.8672 10.4453 21.4453 10.3047C21.5703 10.2734 24.5469 10.25 28.0469 10.2578C34.2656 10.2734 34.4219 10.2734 34.6719 10.4297ZM12.4297 10.4375C13.8828 10.875 14.9844 11.9765 15.4219 13.4297C15.5859 13.9844 15.5859 15.0781 15.4219 15.6328C15.2734 16.1328 14.9766 16.7344 14.7031 17.0937C14.5938 17.2344 14.5234 17.3594 14.5391 17.3672C14.5547 17.3828 14.7266 17.4922 14.9219 17.6172C16.1719 18.414 17.1875 19.7812 17.6484 21.2734C17.8359 21.8984 18 23.4687 17.9297 23.9375C17.8594 24.3594 17.6484 24.6875 17.3281 24.8828C17.0781 25.039 16.9297 25.039 11.3281 25.039C5.72656 25.039 5.57812 25.039 5.32812 24.8828C4.77344 24.5469 4.63281 24.0312 4.75781 22.6953C4.88281 21.2969 5.3125 20.1719 6.14062 19.0859C6.53906 18.5625 7.30469 17.8672 7.85156 17.5312C7.98438 17.4531 8.10156 17.3828 8.11719 17.3672C8.13281 17.3594 8.0625 17.2344 7.95312 17.0937C7.40625 16.375 7.10938 15.4765 7.10938 14.5312C7.10938 12.6484 8.29688 11.0625 10.1562 10.4609C10.7188 10.2812 11.8516 10.2656 12.4297 10.4375ZM34.6719 15.1172C35.0312 15.3281 35.2344 15.6875 35.2344 16.0937C35.2344 16.5 35.0312 16.8594 34.6719 17.0703C34.4219 17.2265 34.2734 17.2265 27.8906 17.2265C21.5078 17.2265 21.3594 17.2265 21.1094 17.0703C20.7578 16.8594 20.5469 16.5 20.5469 16.1015C20.5469 15.5312 20.8672 15.1328 21.4453 14.9922C21.5703 14.9609 24.5469 14.9375 28.0469 14.9453C34.2656 14.9609 34.4219 14.9609 34.6719 15.1172ZM34.6875 21.3828C34.8359 21.4765 35.0312 21.6719 35.1172 21.8125C35.2656 22.0625 35.2734 22.2109 35.2734 25.4687C35.2734 28.7265 35.2656 28.875 35.1172 29.125C35.0312 29.2656 34.8359 29.4609 34.6875 29.5547C34.4141 29.7265 34.375 29.7265 31.0156 29.7265C27.7578 29.7265 27.6094 29.7187 27.3594 29.5703C27.2188 29.4844 27.0234 29.289 26.9297 29.1406C26.7578 28.8672 26.7578 28.8281 26.7578 25.5078C26.7578 21.8359 26.7656 21.789 27.2031 21.4687C27.3359 21.3828 27.5469 21.2812 27.6875 21.2422C27.8203 21.2109 29.3906 21.1875 31.1719 21.1953C34.3594 21.2109 34.4219 21.2109 34.6875 21.3828ZM17.3281 27.6172C18.0781 28.0703 18.0781 29.1172 17.3281 29.5703C17.0781 29.7265 16.9297 29.7265 11.3281 29.7265C5.72656 29.7265 5.57812 29.7265 5.32812 29.5703C4.97656 29.3594 4.76562 29 4.76562 28.6015C4.76562 28.0312 5.08594 27.6328 5.66406 27.4922C5.78906 27.4609 8.41406 27.4375 11.4844 27.4453C16.9219 27.4609 17.0781 27.4687 17.3281 27.6172Z" fill="white"/>
<path d="M10.4062 12.7812C9.67968 13.1484 9.33593 13.7812 9.39061 14.6875C9.42968 15.3672 9.71874 15.8672 10.2656 16.2109C10.6172 16.4219 10.7109 16.4453 11.3281 16.4453C11.9453 16.4453 12.0391 16.4219 12.3906 16.2109C12.625 16.0625 12.8594 15.8281 13.0078 15.5937C13.2187 15.2422 13.2422 15.1484 13.2422 14.5312C13.2422 13.9141 13.2187 13.8203 13.0078 13.4687C12.6484 12.8906 12.1562 12.625 11.4141 12.5937C10.8984 12.5703 10.7656 12.5937 10.4062 12.7812Z" fill="white"/>
<path d="M9.99219 19.0078C8.96094 19.3594 8.15625 20 7.61719 20.8984C7.32812 21.3828 7.03125 22.2187 7.03125 22.5469V22.7344H11.3281H15.625V22.5156C15.6172 22.1953 15.3047 21.3281 15 20.8359C14.4844 19.9844 13.5781 19.2891 12.5859 18.9844C11.875 18.7578 10.6875 18.7734 9.99219 19.0078Z" fill="white"/>
<path d="M29.0625 25.4688V27.4219H31.0156H32.9688V25.4688V23.5156H31.0156H29.0625V25.4688Z" fill="white"/>
</svg>