<svg width="40" height="40" viewBox="0 0 40 40" fill="none" xmlns="http://www.w3.org/2000/svg">
<path d="M2.44531 6.07029C2.21875 6.14061 2.03125 6.22654 2.03125 6.26561C2.03125 6.31248 5.92188 10.2422 10.6875 15.0078L19.3359 23.664L19.7109 23.7187C20.5781 23.8359 19.9062 24.4375 29.3672 14.9609C34.1016 10.2187 37.9688 6.30467 37.9688 6.26561C37.9688 6.22654 37.7656 6.13279 37.5156 6.06248C37.1016 5.94529 35.5469 5.93748 19.9531 5.94529C4.75781 5.95311 2.80469 5.96092 2.44531 6.07029Z" fill="white"/>
<path d="M0.187515 8.21876C0.0468901 8.53908 0.0390776 9.03907 0.0156401 19.8359C1.50651e-05 29.6953 0.0156401 31.1719 0.117203 31.5156C0.179703 31.7344 0.26564 31.9687 0.312515 32.0312C0.375015 32.125 1.60939 30.9297 6.46095 26.0781L12.5391 20L6.48439 13.9453C3.15626 10.6172 0.406265 7.89064 0.382827 7.89064C0.351577 7.89064 0.26564 8.03908 0.187515 8.21876Z" fill="white"/>
<path d="M33.5156 13.9453L27.4609 20L33.5391 26.0781C38.3906 30.9297 39.625 32.125 39.6875 32.0312C39.7344 31.9687 39.8203 31.7344 39.8828 31.5156C39.9844 31.1719 40 29.6953 39.9844 19.8359C39.9609 9.03907 39.9531 8.53908 39.8125 8.21876C39.7344 8.03908 39.6484 7.89064 39.6172 7.89064C39.5937 7.89064 36.8437 10.6172 33.5156 13.9453Z" fill="white"/>
<path d="M8.02344 27.6562C4.72656 30.9609 2.03125 33.6953 2.03125 33.7344C2.03125 33.7734 2.23438 33.8672 2.48438 33.9375C2.89844 34.0547 4.46094 34.0625 20 34.0625C35.5391 34.0625 37.1016 34.0547 37.5156 33.9375C37.7656 33.8672 37.9688 33.7734 37.9688 33.7344C37.9688 33.6953 35.2656 30.9531 31.9609 27.6328L25.9531 21.6016L24.0469 23.4844C22.4375 25.0859 22.0703 25.4062 21.6406 25.6094C20.5859 26.125 19.4062 26.125 18.3672 25.6172C17.9297 25.4062 17.5703 25.0938 15.9688 23.5C14.9375 22.4766 14.0703 21.6406 14.0469 21.6406C14.0312 21.6406 11.3125 24.3438 8.02344 27.6562Z" fill="white"/>
</svg>